<?xml version="1.0" encoding="UTF-8"?>
<svg id="katman_1" data-name="katman 1" xmlns="http://www.w3.org/2000/svg" viewBox="0 0 385.33 71.28">
  <defs>
    <style>
      .cls-1 {
        fill: #fff;
      }

      .cls-2 {
        fill: #008048;
      }

      .cls-3 {
        fill: #1d1d1b;
      }
    </style>
  </defs>
  <g>
    <path class="cls-2" d="m101.66,32.38h8.22v13.63c-1.88,1.35-4.05,2.39-6.53,3.1-2.47.72-4.9,1.08-7.29,1.08-2.6,0-5.01-.42-7.23-1.25-2.23-.83-4.15-2.01-5.77-3.55-1.61-1.54-2.87-3.35-3.78-5.43-.92-2.09-1.37-4.37-1.37-6.88s.45-4.8,1.37-6.89c.91-2.09,2.18-3.9,3.8-5.43,1.63-1.54,3.57-2.72,5.81-3.55,2.24-.83,4.69-1.25,7.36-1.25,3.1,0,5.88.52,8.32,1.56,2.45,1.03,4.47,2.52,6.07,4.46l-5.93,5.36c-1.13-1.22-2.34-2.13-3.64-2.75-1.29-.61-2.75-.92-4.34-.92-1.41,0-2.7.22-3.85.66-1.16.44-2.15,1.07-2.97,1.9-.81.84-1.45,1.82-1.9,2.96-.45,1.15-.68,2.44-.68,3.89s.23,2.64.68,3.8c.45,1.16,1.09,2.16,1.9,2.99.82.83,1.8,1.47,2.94,1.92,1.15.45,2.41.68,3.79.68s2.73-.23,4.04-.68c.33-.11.66-.24.99-.4v-9.02Z"/>
    <path class="cls-2" d="m139.01,39.17c-.12.07-.25.13-.39.19-2.18.95-4.77,1.44-7.78,1.44h-.65l5.96,8.74h9.96l-7.11-10.36Z"/>
    <path class="cls-2" d="m143.69,22.29c-1.19-1.83-2.88-3.24-5.06-4.21-2.18-.97-4.77-1.46-7.78-1.46h-15.04v32.9h9.3v-8.74h5.74c3,0,5.6-.49,7.78-1.44.13-.06.27-.12.39-.19,1.99-.94,3.56-2.25,4.67-3.95,1.19-1.8,1.78-3.94,1.78-6.42s-.59-4.67-1.78-6.51Zm-9.06,10.03c-.95.85-2.4,1.27-4.34,1.27h-5.18v-9.63h5.18c1.94,0,3.39.42,4.34,1.27.96.84,1.44,2.03,1.44,3.57s-.47,2.68-1.44,3.52Z"/>
    <polygon class="cls-2" points="177.01 42.34 177.01 49.53 150.59 49.53 150.59 16.63 176.4 16.63 176.4 23.82 159.81 23.82 159.81 29.36 174.43 29.36 174.43 36.32 159.81 36.32 159.81 42.34 177.01 42.34"/>
    <polygon class="cls-2" points="208.61 42.34 208.61 49.53 182.19 49.53 182.19 16.63 207.99 16.63 207.99 23.82 191.4 23.82 191.4 29.36 206.03 29.36 206.03 36.32 191.4 36.32 191.4 42.34 208.61 42.34"/>
    <polygon class="cls-2" points="245.09 16.63 245.09 49.53 237.43 49.53 222.9 32 222.9 49.53 213.78 49.53 213.78 16.63 221.44 16.63 235.97 34.15 235.97 16.63 245.09 16.63"/>
    <path class="cls-2" d="m268.27,50.19c-2.63,0-5.06-.42-7.29-1.27-2.23-.85-4.16-2.05-5.81-3.6-1.64-1.55-2.92-3.36-3.83-5.43-.91-2.07-1.36-4.34-1.36-6.82s.45-4.75,1.36-6.82c.91-2.07,2.19-3.88,3.83-5.43,1.65-1.55,3.58-2.75,5.81-3.6,2.23-.85,4.65-1.27,7.29-1.27s5.1.42,7.31,1.27c2.21.85,4.13,2.05,5.76,3.6,1.63,1.55,2.91,3.36,3.83,5.43.92,2.07,1.39,4.34,1.39,6.82s-.46,4.76-1.39,6.84c-.93,2.08-2.2,3.89-3.83,5.43-1.63,1.54-3.55,2.73-5.76,3.57-2.21.85-4.65,1.27-7.31,1.27Zm0-7.71c1.25,0,2.42-.22,3.5-.66,1.08-.44,2.02-1.07,2.82-1.9s1.43-1.83,1.88-2.99c.45-1.16.68-2.44.68-3.86s-.23-2.73-.68-3.88c-.45-1.14-1.08-2.13-1.88-2.96-.8-.83-1.74-1.46-2.82-1.9-1.08-.44-2.25-.66-3.5-.66s-2.42.22-3.5.66c-1.08.44-2.02,1.07-2.82,1.9-.8.83-1.43,1.82-1.88,2.96-.46,1.14-.68,2.44-.68,3.88s.23,2.7.68,3.86c.45,1.16,1.08,2.16,1.88,2.99s1.74,1.46,2.82,1.9c1.08.44,2.25.66,3.5.66Z"/>
    <path class="cls-2" d="m297.98,49.53v-25.53h-10.11v-7.38h29.48v7.38h-10.06v25.53h-9.31Z"/>
    <polygon class="cls-2" points="347.25 42.34 347.25 49.53 320.83 49.53 320.83 16.63 346.63 16.63 346.63 23.82 330.04 23.82 330.04 29.36 344.66 29.36 344.66 36.32 330.04 36.32 330.04 42.34 347.25 42.34"/>
    <polygon class="cls-2" points="385.33 49.53 374.52 49.53 365.1 37.59 361.63 41.29 361.63 49.53 352.42 49.53 352.42 16.63 361.63 16.63 361.63 30.31 374.38 16.63 384.63 16.63 371.18 31.18 385.33 49.53"/>
  </g>
  <g>
    <path class="cls-3" d="m185.26,59.09l.1.23.11-.23h-.21Z"/>
    <path class="cls-3" d="m185.59,58.77h-.46l-4.54,9.8h.52l1.31-2.86h5.88l1.31,2.86h.52l-4.54-9.8Zm-2.98,6.53l2.75-5.98-.1-.23h.21l-.11.23,2.75,5.98h-5.5Z"/>
    <polygon class="cls-3" points="204.72 68.57 204.14 68.57 199.75 63.58 197.41 65.99 197.41 68.57 196.94 68.57 196.94 58.77 197.41 58.77 197.41 65.38 203.83 58.77 204.41 58.77 200.06 63.25 204.72 68.57"/>
    <path class="cls-3" d="m211.6,68.58v-9.8h.48v9.8h-.48Z"/>
    <path class="cls-3" d="m220.56,68.58v-9.8h.48v9.37h5.74v.43h-6.22Z"/>
    <path class="cls-3" d="m233.62,68.58v-9.8h.48v9.37h5.74v.43h-6.22Z"/>
    <path class="cls-3" d="m246.67,68.58v-9.8h.48v9.8h-.48Z"/>
    <path class="cls-3" d="m266.56,68.63c-.72,0-1.4-.13-2.04-.39s-1.13-.58-1.46-.97l.25-.34c.32.35.77.66,1.35.9.58.25,1.21.37,1.88.37s1.24-.09,1.68-.28c.44-.19.76-.44.97-.75s.31-.66.31-1.04c0-.45-.11-.81-.34-1.08-.22-.27-.52-.49-.89-.64-.37-.16-.77-.29-1.2-.39-.43-.1-.87-.21-1.32-.33-.44-.12-.85-.27-1.22-.45s-.66-.43-.88-.76-.33-.74-.33-1.25c0-.44.12-.85.35-1.23.23-.38.6-.69,1.09-.93s1.13-.36,1.9-.36c.53,0,1.06.08,1.58.24.52.16.96.38,1.32.65l-.21.38c-.39-.29-.83-.5-1.3-.64-.48-.14-.93-.21-1.37-.21-.65,0-1.2.1-1.63.29-.43.19-.75.45-.96.76-.2.32-.31.67-.31,1.05,0,.46.11.82.34,1.09s.52.49.89.64c.37.16.77.29,1.21.39.44.1.88.21,1.32.33s.84.27,1.21.46.66.44.88.75c.22.31.33.72.33,1.23,0,.44-.12.85-.36,1.23-.24.38-.61.69-1.12.92-.51.23-1.16.35-1.94.35Z"/>
    <path class="cls-3" d="m277.68,57.54c-.12,0-.23-.04-.31-.13s-.13-.19-.13-.32.04-.23.13-.31.19-.13.31-.13.23.04.31.13c.09.09.13.19.13.31s-.04.23-.13.32c-.09.09-.19.13-.31.13Zm-.24,11.04v-9.8h.48v9.8h-.48Z"/>
    <path class="cls-3" d="m288.88,68.63c-.72,0-1.4-.13-2.04-.39s-1.13-.58-1.46-.97l.25-.34c.32.35.77.66,1.35.9.58.25,1.21.37,1.88.37s1.24-.09,1.68-.28c.44-.19.76-.44.97-.75s.31-.66.31-1.04c0-.45-.11-.81-.34-1.08-.22-.27-.52-.49-.89-.64-.37-.16-.77-.29-1.2-.39-.43-.1-.87-.21-1.32-.33-.44-.12-.85-.27-1.22-.45s-.66-.43-.88-.76-.33-.74-.33-1.25c0-.44.12-.85.35-1.23.23-.38.6-.69,1.09-.93s1.13-.36,1.9-.36c.53,0,1.06.08,1.58.24.52.16.96.38,1.32.65l-.21.38c-.39-.29-.83-.5-1.3-.64-.48-.14-.93-.21-1.37-.21-.65,0-1.2.1-1.63.29-.43.19-.75.45-.96.76-.2.32-.31.67-.31,1.05,0,.46.11.82.34,1.09s.52.49.89.64c.37.16.77.29,1.21.39.44.1.88.21,1.32.33s.84.27,1.21.46.66.44.88.75c.22.31.33.72.33,1.23,0,.44-.12.85-.36,1.23-.24.38-.61.69-1.12.92-.51.23-1.16.35-1.94.35Z"/>
    <path class="cls-3" d="m301.49,68.58v-9.37h-3.6v-.43h7.66v.43h-3.6v9.37h-.46Z"/>
    <polygon class="cls-3" points="318.93 68.14 318.93 68.57 312.3 68.57 312.3 58.77 318.73 58.77 318.73 59.2 312.78 59.2 312.78 63.38 318.1 63.38 318.1 63.81 312.78 63.81 312.78 68.14 318.93 68.14"/>
    <polygon class="cls-3" points="336.36 68.57 335.91 68.57 335.88 59.74 331.59 67.21 331.33 67.21 327.03 59.78 327.03 68.57 326.56 68.57 326.56 58.77 326.95 58.77 331.47 66.61 335.96 58.77 336.35 58.77 336.36 68.57"/>
    <path class="cls-3" d="m344.85,68.58v-9.8h.48v9.37h5.74v.43h-6.22Z"/>
    <polygon class="cls-3" points="364.52 68.14 364.52 68.57 357.91 68.57 357.91 58.77 364.34 58.77 364.34 59.2 358.38 59.2 358.38 63.38 363.71 63.38 363.71 63.81 358.38 63.81 358.38 68.14 364.52 68.14"/>
    <path class="cls-3" d="m377.1,65.09c.2-.06.38-.12.55-.2.59-.27,1.03-.64,1.34-1.12.31-.49.46-1.07.46-1.76s-.15-1.26-.46-1.75c-.31-.47-.75-.85-1.34-1.12-.59-.25-1.28-.39-2.09-.39h-3.41v9.8h.49v-3.28h2.93c.39,0,.74-.03,1.07-.09l2.41,3.37h.56l-2.51-3.48Zm-1.51-.24h-2.95v-5.64h2.95c1.1,0,1.94.24,2.53.74.59.49.87,1.18.87,2.08s-.29,1.59-.87,2.09c-.59.5-1.42.74-2.53.74Z"/>
  </g>
  <circle class="cls-2" cx="35.64" cy="35.64" r="35.64"/>
  <path class="cls-1" d="m40.87,31.61l7.38-10.78-3.36-2.3-18.69,27.28,3.36,2.3,8.77-12.81,19.08,11.74c-4.13,7.92-11.96,12.43-20.93,12.43-6.53,0-12.63-2.59-17.16-7.3-4.53-4.71-6.89-10.91-6.64-17.46.47-12.27,10.44-22.31,22.7-22.86.37-.02.74-.03,1.1-.03,8.86,0,16.94,4.87,21.08,12.71l.28.53,5.22-1.25-.42-.87c-4.92-10.1-14.94-16.38-26.16-16.38-7.98,0-15.42,3.17-20.95,8.92-5.53,5.75-8.41,13.32-8.09,21.31.58,14.87,12.67,27.12,27.52,27.88.51.03,1.02.04,1.53.04,10.57,0,20.32-5.75,25.45-15.01.33-.6,1.16-2.14,1.73-3.55l.2-.5-23-14.05Z"/>
</svg>