<svg xmlns="http://www.w3.org/2000/svg" xmlns:xlink="http://www.w3.org/1999/xlink" width="1000" zoomAndPan="magnify" viewBox="0 0 750 749.999995" height="1000" preserveAspectRatio="xMidYMid meet" version="1.0"><defs><clipPath id="aee16b4a0c"><path d="M 5 7.503906 L 741 7.503906 L 741 742.503906 L 5 742.503906 Z M 5 7.503906 " clip-rule="nonzero"/></clipPath></defs><g clip-path="url(#aee16b4a0c)"><path fill="#008048" d="M 740.953125 375.003906 C 740.953125 381.019531 740.808594 387.027344 740.511719 393.035156 C 740.21875 399.042969 739.773438 405.039062 739.183594 411.023438 C 738.59375 417.011719 737.859375 422.976562 736.976562 428.925781 C 736.09375 434.875 735.066406 440.800781 733.894531 446.699219 C 732.71875 452.597656 731.402344 458.464844 729.941406 464.300781 C 728.480469 470.132812 726.875 475.929688 725.128906 481.683594 C 723.382812 487.4375 721.496094 493.148438 719.472656 498.8125 C 717.445312 504.472656 715.28125 510.082031 712.980469 515.640625 C 710.675781 521.195312 708.238281 526.691406 705.667969 532.128906 C 703.097656 537.566406 700.394531 542.9375 697.558594 548.242188 C 694.722656 553.546875 691.757812 558.777344 688.667969 563.9375 C 685.574219 569.09375 682.359375 574.175781 679.015625 579.175781 C 675.675781 584.175781 672.210938 589.09375 668.628906 593.921875 C 665.046875 598.753906 661.347656 603.492188 657.53125 608.144531 C 653.714844 612.792969 649.789062 617.34375 645.75 621.800781 C 641.707031 626.257812 637.5625 630.613281 633.308594 634.867188 C 629.054688 639.117188 624.703125 643.265625 620.246094 647.304688 C 615.789062 651.34375 611.234375 655.269531 606.585938 659.085938 C 601.9375 662.902344 597.195312 666.597656 592.363281 670.183594 C 587.535156 673.765625 582.617188 677.226562 577.617188 680.570312 C 572.617188 683.910156 567.535156 687.125 562.375 690.21875 C 557.21875 693.3125 551.984375 696.273438 546.679688 699.109375 C 541.375 701.945312 536.003906 704.648438 530.566406 707.21875 C 525.128906 709.792969 519.632812 712.226562 514.078125 714.53125 C 508.519531 716.832031 502.910156 718.996094 497.246094 721.019531 C 491.582031 723.046875 485.875 724.933594 480.117188 726.679688 C 474.363281 728.425781 468.566406 730.027344 462.730469 731.488281 C 456.898438 732.953125 451.03125 734.269531 445.132812 735.441406 C 439.234375 736.617188 433.308594 737.644531 427.359375 738.527344 C 421.410156 739.410156 415.441406 740.144531 409.457031 740.734375 C 403.46875 741.324219 397.472656 741.765625 391.464844 742.0625 C 385.457031 742.355469 379.445312 742.503906 373.429688 742.503906 C 367.417969 742.503906 361.40625 742.355469 355.398438 742.0625 C 349.390625 741.765625 343.394531 741.324219 337.40625 740.734375 C 331.421875 740.144531 325.453125 739.410156 319.503906 738.527344 C 313.554688 737.644531 307.628906 736.617188 301.730469 735.441406 C 295.832031 734.269531 289.964844 732.953125 284.128906 731.488281 C 278.296875 730.027344 272.5 728.425781 266.746094 726.679688 C 260.988281 724.933594 255.28125 723.046875 249.617188 721.019531 C 243.953125 718.996094 238.34375 716.832031 232.785156 714.53125 C 227.230469 712.226562 221.734375 709.792969 216.296875 707.21875 C 210.859375 704.648438 205.488281 701.945312 200.183594 699.109375 C 194.878906 696.273438 189.644531 693.3125 184.488281 690.21875 C 179.328125 687.128906 174.246094 683.910156 169.246094 680.570312 C 164.246094 677.226562 159.328125 673.765625 154.5 670.183594 C 149.667969 666.601562 144.925781 662.902344 140.277344 659.085938 C 135.628906 655.269531 131.074219 651.34375 126.617188 647.304688 C 122.160156 643.265625 117.804688 639.117188 113.554688 634.867188 C 109.300781 630.613281 105.152344 626.257812 101.113281 621.800781 C 97.074219 617.34375 93.148438 612.792969 89.332031 608.144531 C 85.515625 603.492188 81.816406 598.753906 78.234375 593.921875 C 74.652344 589.09375 71.1875 584.175781 67.847656 579.175781 C 64.503906 574.175781 61.289062 569.09375 58.195312 563.9375 C 55.105469 558.777344 52.140625 553.546875 49.304688 548.242188 C 46.46875 542.9375 43.765625 537.566406 41.195312 532.128906 C 38.621094 526.691406 36.1875 521.195312 33.882812 515.640625 C 31.582031 510.082031 29.417969 504.472656 27.390625 498.8125 C 25.367188 493.148438 23.480469 487.4375 21.734375 481.683594 C 19.988281 475.929688 18.382812 470.132812 16.921875 464.300781 C 15.460938 458.464844 14.144531 452.597656 12.96875 446.699219 C 11.796875 440.800781 10.769531 434.875 9.886719 428.925781 C 9.003906 422.976562 8.269531 417.011719 7.679688 411.023438 C 7.089844 405.039062 6.644531 399.042969 6.351562 393.035156 C 6.054688 387.027344 5.910156 381.019531 5.910156 375.003906 C 5.910156 368.988281 6.054688 362.976562 6.351562 356.972656 C 6.644531 350.964844 7.089844 344.96875 7.679688 338.980469 C 8.269531 332.996094 9.003906 327.03125 9.886719 321.082031 C 10.769531 315.132812 11.796875 309.207031 12.96875 303.308594 C 14.144531 297.410156 15.460938 291.542969 16.921875 285.707031 C 18.382812 279.875 19.988281 274.078125 21.734375 268.324219 C 23.480469 262.570312 25.367188 256.859375 27.390625 251.195312 C 29.417969 245.535156 31.582031 239.925781 33.882812 234.367188 C 36.1875 228.8125 38.621094 223.3125 41.195312 217.878906 C 43.765625 212.441406 46.46875 207.070312 49.304688 201.765625 C 52.140625 196.460938 55.105469 191.230469 58.195312 186.070312 C 61.289062 180.914062 64.503906 175.832031 67.847656 170.832031 C 71.1875 165.832031 74.652344 160.914062 78.234375 156.085938 C 81.816406 151.253906 85.515625 146.511719 89.332031 141.863281 C 93.148438 137.214844 97.074219 132.664062 101.113281 128.207031 C 105.152344 123.75 109.300781 119.394531 113.554688 115.140625 C 117.804688 110.890625 122.160156 106.742188 126.617188 102.703125 C 131.074219 98.664062 135.628906 94.738281 140.277344 90.921875 C 144.925781 87.105469 149.667969 83.40625 154.5 79.824219 C 159.328125 76.242188 164.246094 72.78125 169.246094 69.4375 C 174.246094 66.097656 179.328125 62.878906 184.488281 59.789062 C 189.644531 56.695312 194.878906 53.734375 200.183594 50.898438 C 205.488281 48.0625 210.859375 45.359375 216.296875 42.789062 C 221.734375 40.214844 227.230469 37.78125 232.785156 35.476562 C 238.34375 33.175781 243.953125 31.011719 249.617188 28.984375 C 255.28125 26.960938 260.988281 25.074219 266.746094 23.328125 C 272.5 21.582031 278.296875 19.980469 284.128906 18.515625 C 289.964844 17.054688 295.832031 15.738281 301.730469 14.566406 C 307.628906 13.390625 313.554688 12.363281 319.503906 11.480469 C 325.453125 10.597656 331.421875 9.863281 337.40625 9.273438 C 343.394531 8.683594 349.390625 8.242188 355.398438 7.945312 C 361.40625 7.652344 367.417969 7.503906 373.429688 7.503906 C 379.445312 7.503906 385.457031 7.652344 391.464844 7.945312 C 397.472656 8.242188 403.46875 8.683594 409.457031 9.273438 C 415.441406 9.863281 421.410156 10.597656 427.359375 11.480469 C 433.308594 12.363281 439.234375 13.390625 445.132812 14.566406 C 451.03125 15.738281 456.898438 17.054688 462.730469 18.515625 C 468.566406 19.980469 474.363281 21.582031 480.117188 23.328125 C 485.875 25.074219 491.582031 26.960938 497.246094 28.984375 C 502.910156 31.011719 508.519531 33.175781 514.078125 35.476562 C 519.632812 37.78125 525.128906 40.214844 530.566406 42.789062 C 536.003906 45.359375 541.375 48.0625 546.679688 50.898438 C 551.984375 53.734375 557.21875 56.695312 562.375 59.789062 C 567.535156 62.878906 572.617188 66.097656 577.617188 69.4375 C 582.617188 72.78125 587.535156 76.242188 592.363281 79.824219 C 597.195312 83.40625 601.9375 87.105469 606.585938 90.921875 C 611.234375 94.738281 615.789062 98.664062 620.246094 102.703125 C 624.703125 106.742188 629.054688 110.890625 633.308594 115.140625 C 637.5625 119.394531 641.707031 123.75 645.75 128.207031 C 649.789062 132.664062 653.714844 137.214844 657.53125 141.863281 C 661.347656 146.511719 665.046875 151.253906 668.628906 156.085938 C 672.210938 160.914062 675.675781 165.832031 679.015625 170.832031 C 682.359375 175.832031 685.574219 180.914062 688.667969 186.070312 C 691.757812 191.230469 694.722656 196.460938 697.558594 201.765625 C 700.394531 207.070312 703.097656 212.441406 705.667969 217.878906 C 708.238281 223.3125 710.675781 228.8125 712.980469 234.367188 C 715.28125 239.925781 717.445312 245.535156 719.472656 251.195312 C 721.496094 256.859375 723.382812 262.570312 725.128906 268.324219 C 726.875 274.078125 728.480469 279.875 729.941406 285.707031 C 731.402344 291.542969 732.71875 297.410156 733.894531 303.308594 C 735.066406 309.207031 736.09375 315.132812 736.976562 321.082031 C 737.859375 327.03125 738.59375 332.996094 739.183594 338.980469 C 739.773438 344.96875 740.21875 350.964844 740.511719 356.972656 C 740.808594 362.976562 740.953125 368.988281 740.953125 375.003906 Z M 740.953125 375.003906 " fill-opacity="1" fill-rule="nonzero"/></g><path fill="#ffffff" d="M 427.363281 333.449219 L 503.46875 222.292969 L 468.820312 198.574219 L 276.085938 479.871094 L 310.734375 503.585938 L 401.171875 371.496094 L 597.925781 492.554688 C 555.335938 574.222656 474.59375 620.726562 382.09375 620.726562 C 314.753906 620.726562 251.851562 594.019531 205.136719 545.453125 C 158.425781 496.886719 134.085938 432.953125 136.664062 365.414062 C 141.511719 238.894531 244.324219 135.367188 370.75 129.695312 C 374.566406 129.488281 378.382812 129.386719 382.09375 129.386719 C 473.457031 129.386719 556.78125 179.601562 599.472656 260.445312 L 602.359375 265.910156 L 656.1875 253.019531 L 651.859375 244.046875 C 601.121094 139.902344 497.796875 75.148438 382.09375 75.148438 C 299.804688 75.148438 223.082031 107.835938 166.054688 167.125 C 109.03125 226.414062 79.332031 304.472656 82.628906 386.863281 C 88.613281 540.191406 213.285156 666.507812 366.417969 674.34375 C 371.679688 674.65625 376.9375 674.757812 382.195312 674.757812 C 491.195312 674.757812 591.738281 615.464844 644.640625 519.984375 C 648.042969 513.796875 656.601562 497.917969 662.480469 483.378906 L 664.542969 478.222656 L 427.363281 333.34375 Z M 427.363281 333.449219 " fill-opacity="1" fill-rule="nonzero"/></svg>