<?xml version="1.0" encoding="utf-8"?>
<!-- Generator: Adobe Illustrator 15.1.0, SVG Export Plug-In . SVG Version: 6.00 Build 0)  -->
<!DOCTYPE svg PUBLIC "-//W3C//DTD SVG 1.1 Basic//EN" "http://www.w3.org/Graphics/SVG/1.1/DTD/svg11-basic.dtd">
<svg version="1.1" baseProfile="basic" id="Ebene_1"
	 xmlns="http://www.w3.org/2000/svg" xmlns:xlink="http://www.w3.org/1999/xlink" x="0px" y="0px" width="123.361px"
	 height="50.081px" viewBox="0 0 123.361 50.081" xml:space="preserve">
<g>
	<g>
		<g>
			<path fill="#6E6E6E" d="M120.213,34.254H121c0.336,0.004,0.561,0.004,0.771,0.182c0.157,0.127,0.271,0.322,0.271,0.613
				c0,0.48-0.341,0.646-0.485,0.688l0.553,1.018h-0.534l-0.49-0.932h-0.42v0.932h-0.454L120.213,34.254L120.213,34.254z
				 M120.669,34.661v0.777h0.162c0.158,0,0.221-0.008,0.306-0.008c0.107,0,0.441-0.021,0.441-0.383c0-0.055-0.006-0.24-0.198-0.34
				c-0.104-0.049-0.221-0.049-0.492-0.049L120.669,34.661L120.669,34.661z"/>
		</g>
		<g>
			<path fill="#6E6E6E" d="M118.653,35.5c0,1.303,1.059,2.361,2.354,2.361s2.354-1.061,2.354-2.361c0-1.297-1.057-2.357-2.354-2.357
				S118.653,34.202,118.653,35.5z M119.053,35.5c0-1.08,0.875-1.959,1.955-1.959s1.96,0.879,1.96,1.959
				c0,1.082-0.88,1.959-1.96,1.959S119.053,36.583,119.053,35.5z"/>
		</g>
	</g>
	<path fill="#6E6E6E" d="M107.594,22.156c-1.848,0-3.353-1.5-3.353-3.344c0-1.842,1.505-3.348,3.353-3.348h3.089v-4.511h-3.089
		c-4.334,0-7.854,3.525-7.854,7.856c0,4.328,3.521,7.852,7.854,7.852v-0.002h1.87c1.839,0,3.344,1.496,3.344,3.344
		s-1.505,3.346-3.344,3.346h-9.805v4.512h9.805c4.326,0,7.854-3.525,7.854-7.854c0-4.334-3.527-7.854-7.854-7.854L107.594,22.156z"
		/>
	<path fill="#6E6E6E" d="M35.227,10.653h-7.466V0h-4.512v25.579c0,6.919,5.635,12.548,12.549,12.548
		c7.423,0,13.457-6.035,13.457-13.459C49.255,16.942,42.966,10.653,35.227,10.653z M35.798,33.622c-4.433,0-8.037-3.607-8.037-8.042
		V15.158h7.466c5.245,0,9.519,4.269,9.519,9.513C44.744,29.604,40.732,33.622,35.798,33.622z"/>
	<path fill="#6E6E6E" d="M70.342,15.471c3.594,0,6.521,2.922,6.521,6.518v4.977c0,6.01,4.894,10.898,10.9,10.898
		c2.387,0,4.589-0.771,6.387-2.076v1.52c0,4.561-3.703,8.266-8.256,8.266H84.88v4.508h1.014c7.042,0,12.766-5.73,12.766-12.771
		V11.115h-4.51v15.852c0,3.523-2.865,6.393-6.387,6.393c-3.522,0-6.394-2.867-6.394-6.393v-4.978
		c0-6.079-4.945-11.026-11.027-11.026v0.007l0,0h-6.764c-4.326,0-7.849,3.522-7.849,7.854c0,4.323,3.521,7.848,7.849,7.848V26.67
		h4.563c1.846,0,3.346,1.502,3.346,3.348c0,1.844-1.5,3.346-3.346,3.346h-7.211c-3.479,0-6.309-2.826-6.309-6.299V11.127h-4.504
		v15.938c0,5.959,4.846,10.807,10.812,10.807h7.211c4.334,0,7.85-3.521,7.85-7.854c0-4.333-3.516-7.853-7.85-7.853h-4.563
		c-1.839,0-3.339-1.5-3.339-3.339c0-1.847,1.5-3.349,3.339-3.349L70.342,15.471L70.342,15.471z"/>
	<path fill="#6E6E6E" d="M22.097,11.185h-4.51v15.634c0,3.6-2.934,6.537-6.538,6.537s-6.537-2.938-6.537-6.537l0,0V11.185H0v15.634
		l0,0c0,6.088,4.953,11.045,11.049,11.045c6.094,0,11.047-4.957,11.047-11.045L22.097,11.185L22.097,11.185z"/>
</g>
</svg>
