<?xml version="1.0" encoding="UTF-8"?>
<svg id="Ebene_1" data-name="Ebene 1" xmlns="http://www.w3.org/2000/svg" width="51.87mm" height="11.13mm" viewBox="0 0 147.04 31.55">
  <defs>
    <style>
      .cls-1 {
        fill: #d1d1d1;
      }
    </style>
  </defs>
  <g id="Ebene_4" data-name="Ebene 4">
    <path class="cls-1" d="m9.57,8.1c1.33,1.08,2.94,1.84,4.69,2.16V1.08l1.87-1.08,1.86,1.08v9.18c1.76-.32,3.36-1.07,4.69-2.16l3.4,1.96c-2.56,2.53-6.07,4.09-9.96,4.09s-7.41-1.56-9.96-4.09l3.4-1.96h0Zm4.13,23.43c.92-3.49.51-7.31-1.43-10.68-1.94-3.36-5.05-5.63-8.53-6.58v3.93c1.6.62,3.06,1.62,4.21,2.99L0,25.8v2.16l1.86,1.08,7.95-4.58c.61,1.68.75,3.44.48,5.14l3.4,1.96h0v-.02Zm14.84-17.25c-3.47.95-6.58,3.22-8.53,6.58-1.94,3.36-2.35,7.19-1.43,10.68l3.4-1.96c-.27-1.7-.12-3.46.48-5.14l7.95,4.58,1.86-1.08v-2.16l-7.95-4.58c1.16-1.36,2.61-2.37,4.21-2.99v-3.93h0Zm61.99-4.22h1.84v15.72h-1.84v-3.07c-1.36,2.06-3.6,3.39-6.33,3.39-4.51,0-8.17-3.66-8.17-8.17s3.66-8.17,8.17-8.17c2.73,0,4.98,1.34,6.33,3.39v-3.07h0Zm0,7.86c0-3.5-2.83-6.33-6.33-6.33s-6.33,2.83-6.33,6.33,2.83,6.33,6.33,6.33,6.33-2.83,6.33-6.33Zm21.61-13.23l-1.84,1.06v4.31h-9.37v-5.37l-1.84,1.06v4.31h-2.47v1.77h2.47v10.35c0,2,1.57,3.59,3.57,3.59h2.74v-1.84h-2.74c-.94,0-1.73-.78-1.73-1.77v-10.33h9.37v10.35c0,2,1.57,3.59,3.54,3.59h2.76v-1.84h-2.76c-.92,0-1.71-.78-1.71-1.77v-10.33h4.47v-1.77h-4.47v-5.37h0Zm-41.86,11.77v9.32h1.84v-9.32c0-3.92-3-6.72-6.72-6.72-2.4,0-4.59,1.23-5.81,3.75-1.23-2.5-3.4-3.75-5.78-3.75-3.71,0-6.72,2.8-6.72,6.72v9.32h1.84v-9.32c0-2.9,2.18-4.88,4.88-4.88s4.88,1.97,4.88,4.88v9.32h1.84v-9.32c0-2.9,2.18-4.88,4.88-4.88s4.88,1.97,4.88,4.88h0Zm76.07-4.88h.7v-1.84h-.7c-3.71,0-6.72,2.8-6.72,6.72v9.32h1.84v-9.32c0-2.9,2.18-4.88,4.88-4.88h0Zm-10.6,6.33c0,.18-.02.38-.02.56h-14.57c.29,3.24,3.13,5.77,6.8,5.77,2.27,0,4.07-.97,5.23-2.45l1.61.92c-1.51,2.05-3.91,3.37-6.85,3.37-4.89,0-8.55-3.66-8.55-8.17s3.66-8.17,8.17-8.17,8.17,3.66,8.17,8.17h0Zm-14.5-1.22h12.65c-.59-2.92-3.25-5.12-6.32-5.12s-5.74,2.2-6.32,5.12h0Z"/>
  </g>
</svg>