<?xml version="1.0" encoding="UTF-8"?>
<svg id="Ebene_1" data-name="Ebene 1" xmlns="http://www.w3.org/2000/svg" width="133.91mm" height="56.9mm" viewBox="0 0 379.58 161.28">
  <defs>
    <style>
      .cls-1 {
        fill: #fff;
      }

      .cls-2 {
        fill: #e20613;
      }

      .cls-3 {
        fill: #1d1d1b;
      }

      .cls-4 {
        fill: #4a4a49;
      }
    </style>
  </defs>
  <g>
    <path class="cls-1" d="m111.65,31.9c0,17.62-14.28,31.9-31.89,31.9s-31.89-14.28-31.89-31.9S62.14,0,79.76,0s31.89,14.28,31.89,31.9Z"/>
    <g>
      <path class="cls-2" d="m92.2,8.93h.02c10.04,1.52,9.49,9.05,9.49,9.05l-31.96,32.83c6.11.55,18.41.95,36.83-1.68,3.2-4.97,5.07-10.88,5.07-17.24,0-17.61-14.28-31.89-31.9-31.89-9.04,0-17.2,3.77-23,9.81,18.71-2.33,30.41-1.5,35.44-.88"/>
      <path class="cls-2" d="m67.22,53.74h-.02c-10.04-1.53-9.49-9.05-9.49-9.05l31.96-32.83c-6-.54-17.98-.94-35.89,1.54-3.72,5.22-5.91,11.6-5.91,18.5,0,17.61,14.28,31.89,31.89,31.89,9.66,0,18.32-4.31,24.17-11.1-19.44,2.52-31.56,1.68-36.7,1.04"/>
    </g>
    <polygon class="cls-3" points="148.06 24.73 132.93 24.73 132.93 16.75 160.87 16.75 160.87 24.28 144.06 43.27 161.83 43.27 161.83 51.31 131.7 51.31 131.7 43.33 148.06 24.73"/>
    <rect class="cls-3" x="166.08" y="16.74" width="9.82" height="34.57"/>
    <path class="cls-3" d="m176.72,8.23c0,3.16-2.57,5.74-5.73,5.74s-5.73-2.57-5.73-5.74,2.56-5.73,5.73-5.73,5.73,2.56,5.73,5.73"/>
    <path class="cls-3" d="m239.68,43.64c-5.06,0-8.51-4.34-8.51-9.98s3.45-9.65,8.51-9.65,8.57,4.09,8.57,9.65-3.52,9.98-8.57,9.98m13.17-22.62c-3.14-3.29-6.8-4.93-11.01-4.93s-7.64,1.48-10.3,4.44V5.11h-9.66v46.2h9.66v-4.57c2.7,3.39,6.11,5.09,10.21,5.09s7.76-1.74,10.98-5.22c3.22-3.48,4.83-7.8,4.83-12.95s-1.56-9.36-4.7-12.65"/>
    <path class="cls-3" d="m276.09,24.83c4.41-1.55,8.63,0,10.93,3.63l-17.17,5.51c-.24-4.04,2.02-7.66,6.24-9.14m2,18.96c-2.37-.19-4.08-1.12-5.79-3.1l24.18-7.7s-.04-5.8-3.7-10.43c-3.1-3.91-7.24-5.98-12.48-6.4-5.24-.42-9.4.97-13.47,4.12-3.87,3-5.81,7.26-6.21,12.26-.4,5.01.99,9.35,4.18,13.06,3.19,3.7,7.41,5.76,12.64,6.18,9.1.73,15.26-5.32,15.96-6.16l-5.61-5.91c-.41.67-4.36,4.52-9.71,4.09"/>
    <path class="cls-3" d="m314.89,24.83c4.4-1.55,8.61,0,10.92,3.63l-17.18,5.51c-.23-4.04,2.03-7.66,6.26-9.14m1.99,18.96c-2.37-.19-4.08-1.12-5.79-3.1l24.19-7.7s-.05-5.8-3.71-10.43c-3.09-3.91-7.24-5.98-12.48-6.4-5.24-.42-9.4.97-13.46,4.12-3.88,3-5.81,7.26-6.22,12.26-.4,5.01,1,9.35,4.19,13.06,3.19,3.7,7.4,5.76,12.65,6.18,9.09.73,15.26-5.32,15.95-6.16l-5.61-5.91c-.41.67-4.36,4.52-9.71,4.09"/>
    <path class="cls-3" d="m198.28,43.72c-5.05,0-8.51-4.34-8.51-9.97s3.46-9.65,8.51-9.65,8.58,4.08,8.58,9.65-3.52,9.97-8.58,9.97m8.92,2.82v1.19c-.02,3.87-.88,8.53-4.75,10.97-8.22,5.17-16.79-3.71-16.79-3.71l-6.19,6.42s6,7.65,17.6,7.65c5.02,0,9.39-1.43,12.79-4.42,4.08-3.58,6.73-9.57,6.73-18.99v-28.89h-9.73v5.41c-2.29-3.45-6.25-6.07-10.93-6.07-9.66,0-16.21,7.37-16.21,17.99s6.3,17.84,15.97,17.84c4.8,0,8.5-1.92,11.52-5.37"/>
  </g>
  <g>
    <path class="cls-4" d="m0,150.32v-7.09l25.34-31.51H2.17v-7.74h34v7.35l-24.35,31.18h24.35v7.81H0Z"/>
    <path class="cls-4" d="m40.7,112.38v-7.94h7.81v7.94h-7.81Zm0,37.94v-32.82h7.81v32.82h-7.81Z"/>
    <path class="cls-4" d="m85.33,148.68c0,9.52-6.5,12.6-15.82,12.6-12.21,0-14.11-5.84-15.03-10.24h8.67c.72,3.41,4.73,4.07,6.56,4.07,4.66,0,7.81-1.64,7.81-7.29v-2.89c-3.68,3.28-8.27,3.48-9.91,3.48-6.89,0-14.18-4.4-14.18-15.62s7.81-16.28,14.84-16.28c4.2,0,7.42,1.77,9.25,4.46v-3.48h7.81v31.18Zm-15.75-25.14c-4,0-8.07,2.69-8.07,9.06,0,5.12,2.89,8.67,8.14,8.67s8.07-3.35,8.07-8.4-2.69-9.32-8.14-9.32Z"/>
    <path class="cls-4" d="m99.9,103.98v16.28c3.35-3.35,7.88-3.74,9.39-3.74,7.62,0,14.44,6.7,14.44,17.2,0,11.68-7.94,17.59-14.9,17.59-1.9,0-5.52-.39-8.99-4.4v3.41h-7.81v-46.34h7.88Zm7.88,39.84c4.27,0,7.88-3.68,7.88-10.7,0-4.4-2.56-9.45-8.2-9.45-4.73,0-7.68,4.14-7.68,9.45,0,7.09,3.28,10.7,8.01,10.7Z"/>
    <path class="cls-4" d="m135.02,135.49c.13,1.64,1.64,8.14,9.25,8.14,5.58,0,7.94-3.41,8.6-4.53l6.69,3.87c-2.63,3.55-7.42,8.34-16.01,8.34-9.78,0-16.87-6.7-16.87-17.59,0-11.75,7.94-17.2,16.48-17.2,12.54,0,16.15,10.04,16.15,18.97h-24.29Zm15.62-5.78c-.13-1.64-1.18-6.89-7.35-6.89-6.5,0-7.74,5.58-8.01,6.89h15.36Z"/>
    <path class="cls-4" d="m170.26,135.49c.13,1.64,1.64,8.14,9.25,8.14,5.58,0,7.94-3.41,8.6-4.53l6.69,3.87c-2.63,3.55-7.42,8.34-16.01,8.34-9.78,0-16.87-6.7-16.87-17.59,0-11.75,7.94-17.2,16.48-17.2,12.54,0,16.15,10.04,16.15,18.97h-24.29Zm15.62-5.78c-.13-1.64-1.18-6.89-7.35-6.89-6.5,0-7.74,5.58-8.01,6.89h15.36Z"/>
    <path class="cls-4" d="m234.91,103.98c10.96,0,21.2,6.96,21.2,23.56,0,14.84-8.07,22.78-21.73,22.78h-17.53v-46.34h18.05Zm-9.39,38.53h5.38c10.04,0,16.02-1.9,16.02-14.97,0-11.42-5.65-15.75-14.24-15.75h-7.15v30.72Z"/>
    <path class="cls-4" d="m261.3,112.38v-7.94h7.81v7.94h-7.81Zm0,37.94v-32.82h7.81v32.82h-7.81Z"/>
    <path class="cls-4" d="m283.62,117.5v4.66c2.49-5.19,8.21-5.38,9.78-5.38h.66v8.07c-1.64,0-7.94,0-9.85,6.04-.59,1.84-.59,3.48-.59,5.38v14.05h-7.61v-32.82h7.61Z"/>
    <path class="cls-4" d="m302.65,135.49c.13,1.64,1.64,8.14,9.25,8.14,5.58,0,7.94-3.41,8.6-4.53l6.69,3.87c-2.63,3.55-7.42,8.34-16.01,8.34-9.78,0-16.87-6.7-16.87-17.59,0-11.75,7.94-17.2,16.48-17.2,12.54,0,16.15,10.04,16.15,18.97h-24.29Zm15.62-5.78c-.13-1.64-1.18-6.89-7.35-6.89-6.5,0-7.74,5.58-8.01,6.89h15.36Z"/>
    <path class="cls-4" d="m359.96,141.07c-2.3,6.5-8.27,10.24-14.84,10.24-9.65,0-16.21-7.61-16.21-17.39,0-8.53,5.78-17.4,16.61-17.4,8.53,0,12.87,6.24,14.11,9.32l-7.02,3.28c-.92-2.82-3.22-5.58-7.48-5.58-5.32,0-8.07,4.73-8.07,10.17s2.96,10.24,8.27,10.24c5.58,0,7.35-4.86,7.94-6.43l6.7,3.55Z"/>
    <path class="cls-4" d="m359.89,117.5h4.79v-11.68h7.88v11.68h7.02v5.58h-7.02v16.28c0,1.25.07,2.69.79,3.48.92.98,2.63.98,2.95.98,1.11,0,2.3-.13,3.28-.39v6.63c-1.05.13-2.95.53-5.65.53-7.02,0-9.25-2.56-9.25-7.94v-19.56h-4.79v-5.58Z"/>
  </g>
</svg>