<?xml version="1.0" encoding="utf-8"?>
<!-- Generator: Adobe Illustrator 15.1.0, SVG Export Plug-In . SVG Version: 6.00 Build 0)  -->
<!DOCTYPE svg PUBLIC "-//W3C//DTD SVG 1.1 Basic//EN" "http://www.w3.org/Graphics/SVG/1.1/DTD/svg11-basic.dtd">
<svg version="1.1" baseProfile="basic" id="Ebene_1"
	 xmlns="http://www.w3.org/2000/svg" xmlns:xlink="http://www.w3.org/1999/xlink" x="0px" y="0px" width="144.562px"
	 height="34.732px" viewBox="0 0 144.562 34.732" xml:space="preserve">
<g>
	<path fill="#D1D1D1" d="M22.3,4.492h0.011c5.051,0.764,4.772,4.551,4.772,4.551l-16.07,16.51c3.069,0.277,9.257,0.48,18.522-0.844
		c1.61-2.5,2.548-5.475,2.548-8.668C32.083,7.182,24.9,0,16.041,0C11.494,0,7.396,1.895,4.477,4.934
		C13.883,3.762,19.772,4.174,22.3,4.492"/>
	<path fill="#D1D1D1" d="M9.736,27.023H9.729c-5.051-0.764-4.775-4.551-4.775-4.551l16.074-16.51
		C18.01,5.691,11.984,5.488,2.979,6.738C1.106,9.363,0,12.57,0,16.039C0,24.896,7.185,32.08,16.041,32.08
		c4.861,0,9.214-2.164,12.155-5.578C18.419,27.771,12.322,27.348,9.736,27.023"/>
	<polyline fill="#D1D1D1" points="50.396,12.434 42.788,12.434 42.788,8.42 56.837,8.42 56.837,12.209 48.389,21.76 57.324,21.76 
		57.324,25.807 42.17,25.807 42.17,21.793 50.396,12.434 	"/>
	<rect x="59.461" y="8.42" fill="#D1D1D1" width="4.938" height="17.387"/>
	<path fill="#D1D1D1" d="M64.813,4.137c0,1.592-1.29,2.883-2.882,2.883c-1.595,0-2.885-1.291-2.885-2.883s1.29-2.883,2.885-2.883
		C63.523,1.254,64.813,2.545,64.813,4.137"/>
	<path fill="#D1D1D1" d="M103.104,10.564c-1.577-1.648-3.426-2.477-5.539-2.477c-2.117,0-3.847,0.746-5.186,2.232V2.562h-4.855
		v23.238h4.855v-2.299c1.36,1.705,3.071,2.559,5.135,2.559c2.062,0,3.901-0.875,5.521-2.625c1.619-1.748,2.429-3.918,2.429-6.51
		C105.464,14.338,104.677,12.219,103.104,10.564 M96.479,21.945c-2.542,0-4.28-2.186-4.28-5.016c0-2.768,1.738-4.854,4.28-4.854
		s4.312,2.055,4.312,4.854C100.792,19.795,99.022,21.945,96.479,21.945z"/>
	<path fill="#D1D1D1" d="M115.794,22.021c-1.188-0.094-2.053-0.562-2.912-1.559l12.166-3.871c-0.017,0.014-0.021-2.918-1.862-5.246
		c-1.562-1.969-3.645-3.01-6.276-3.221c-2.635-0.211-4.728,0.484-6.774,2.072c-1.945,1.51-2.922,3.645-3.123,6.162
		c-0.2,2.518,0.5,4.703,2.104,6.562c1.604,1.861,3.724,2.896,6.359,3.107c4.572,0.363,7.677-2.678,8.022-3.1l-2.817-2.973
		C120.475,20.303,118.485,22.238,115.794,22.021 M114.794,12.484c2.214-0.775,4.335,0.006,5.495,1.826l-8.638,2.771
		C111.534,15.053,112.669,13.23,114.794,12.484z"/>
	<path fill="#D1D1D1" d="M135.307,22.021c-1.188-0.094-2.056-0.562-2.912-1.559l12.167-3.871c-0.02,0.014-0.023-2.918-1.866-5.246
		c-1.561-1.969-3.645-3.01-6.276-3.221s-4.727,0.484-6.771,2.072c-1.948,1.51-2.921,3.645-3.124,6.162
		c-0.202,2.518,0.5,4.703,2.104,6.562c1.604,1.861,3.727,2.896,6.359,3.107c4.575,0.363,7.677-2.678,8.022-3.1l-2.817-2.973
		C139.984,20.303,137.996,22.238,135.307,22.021 M134.307,12.484c2.214-0.775,4.335,0.006,5.492,1.826l-8.638,2.771
		C131.044,15.053,132.178,13.23,134.307,12.484z"/>
	<path fill="#D1D1D1" d="M80.143,23.406v0.598c-0.012,1.945-0.441,4.289-2.393,5.516c-4.131,2.605-8.442-1.861-8.442-1.861
		l-3.114,3.229c0,0,3.021,3.846,8.851,3.846c2.528,0,4.722-0.721,6.435-2.227c2.052-1.801,3.384-4.812,3.384-9.551V8.424h-4.895
		v2.725c-1.148-1.736-3.146-3.057-5.492-3.057c-4.859,0-8.154,3.705-8.154,9.047c0,5.246,3.17,8.975,8.029,8.975
		C76.76,26.109,78.627,25.143,80.143,23.406 M75.656,21.99c-2.542,0-4.28-2.186-4.28-5.018c0-2.768,1.738-4.854,4.28-4.854
		s4.312,2.055,4.312,4.854C79.966,19.84,78.198,21.99,75.656,21.99z"/>
</g>
</svg>
