<?xml version="1.0" encoding="utf-8"?>
<!-- Generator: Adobe Illustrator 15.1.0, SVG Export Plug-In . SVG Version: 6.00 Build 0)  -->
<!DOCTYPE svg PUBLIC "-//W3C//DTD SVG 1.1 Basic//EN" "http://www.w3.org/Graphics/SVG/1.1/DTD/svg11-basic.dtd">
<svg version="1.1" baseProfile="basic" id="Ebene_1"
	 xmlns="http://www.w3.org/2000/svg" xmlns:xlink="http://www.w3.org/1999/xlink" x="0px" y="0px" width="140.444px"
	 height="53.85px" viewBox="0 0 140.444 53.85" xml:space="preserve">
<g>
	<g>
		<path fill="#FF0000" d="M21.666,4.365l0.008,0.002c4.907,0.738,4.642,4.42,4.642,4.42L10.698,24.826
			c2.985,0.271,8.994,0.465,17.998-0.818c1.562-2.428,2.476-5.318,2.476-8.422C31.172,6.98,24.193,0,15.586,0
			C11.169,0,7.187,1.844,4.35,4.795C13.487,3.656,19.209,4.059,21.666,4.365"/>
		<path fill="#FF0000" d="M9.458,26.256L9.45,26.254c-4.908-0.74-4.639-4.418-4.639-4.418L20.428,5.795
			c-2.934-0.264-8.785-0.459-17.535,0.752C1.075,9.098,0,12.215,0,15.586c0,8.607,6.979,15.586,15.583,15.586
			c4.725,0,8.952-2.104,11.812-5.424C17.895,26.982,11.97,26.572,9.458,26.256"/>
	</g>
	<g>
		<polygon points="48.96,12.082 41.569,12.082 41.569,8.184 55.219,8.184 55.219,11.863 47.009,21.143 55.692,21.143 55.692,25.072 
			40.971,25.072 40.971,21.174 		"/>
		<rect x="57.77" y="8.182" width="4.797" height="16.893"/>
		<g>
			<path d="M62.967,4.02c0,1.547-1.254,2.803-2.801,2.803c-1.546,0-2.798-1.256-2.798-2.803s1.252-2.801,2.798-2.801
				C61.712,1.221,62.967,2.475,62.967,4.02"/>
			<path d="M93.731,21.324c-2.472,0-4.158-2.123-4.158-4.875c0-2.688,1.688-4.715,4.158-4.715c2.47,0,4.188,1.996,4.188,4.715
				C97.92,19.23,96.201,21.324,93.731,21.324 M100.166,10.268c-1.532-1.604-3.325-2.406-5.381-2.406s-3.734,0.725-5.035,2.17V2.496
				h-4.721v22.578h4.721V22.84c1.323,1.656,2.986,2.484,4.988,2.484c2.005,0,3.793-0.85,5.365-2.549
				c1.572-1.697,2.358-3.809,2.358-6.324C102.464,13.934,101.699,11.873,100.166,10.268"/>
			<path d="M111.523,12.133c2.153-0.756,4.216,0.004,5.341,1.773l-8.393,2.689C108.358,14.625,109.461,12.854,111.523,12.133
				 M112.499,21.396c-1.156-0.094-1.996-0.549-2.829-1.516l11.817-3.762c-0.018,0.016-0.021-2.834-1.812-5.098
				c-1.515-1.912-3.54-2.922-6.1-3.129c-2.561-0.205-4.591,0.475-6.581,2.014c-1.891,1.469-2.839,3.545-3.033,5.988
				c-0.196,2.443,0.486,4.57,2.045,6.379c1.56,1.811,3.619,2.812,6.177,3.021c4.444,0.354,7.458-2.604,7.797-3.01l-2.738-2.891
				C117.043,19.725,115.113,21.605,112.499,21.396"/>
			<path d="M130.48,12.133c2.152-0.756,4.212,0.004,5.34,1.773l-8.396,2.689C127.311,14.625,128.416,12.854,130.48,12.133
				 M131.453,21.396c-1.155-0.094-1.994-0.549-2.827-1.516l11.818-3.762c-0.019,0.016-0.022-2.834-1.812-5.098
				c-1.513-1.912-3.537-2.922-6.097-3.129c-2.562-0.205-4.592,0.475-6.581,2.014c-1.896,1.469-2.84,3.545-3.037,5.988
				s0.485,4.57,2.047,6.379c1.557,1.811,3.616,2.812,6.177,3.021c4.444,0.354,7.457-2.604,7.795-3.01l-2.736-2.891
				C135.997,19.725,134.064,21.605,131.453,21.396"/>
			<path d="M73.501,21.365c-2.469,0-4.159-2.121-4.159-4.873c0-2.688,1.69-4.717,4.159-4.717c2.47,0,4.19,1.994,4.19,4.717
				C77.691,19.275,75.971,21.365,73.501,21.365 M77.86,22.742v0.58c-0.007,1.889-0.429,4.168-2.321,5.359
				c-4.014,2.525-8.205-1.812-8.205-1.812l-3.023,3.135c0,0,2.936,3.736,8.598,3.736c2.456,0,4.586-0.699,6.25-2.16
				c1.992-1.75,3.287-4.678,3.287-9.281V8.184h-4.752v2.646c-1.117-1.688-3.058-2.969-5.34-2.969c-4.722,0-7.923,3.598-7.923,8.789
				c0,5.096,3.081,8.719,7.803,8.719C74.577,25.369,76.387,24.432,77.86,22.742"/>
			<path d="M87.485,41.666c-0.701,0-1.304-0.238-1.811-0.715c-0.505-0.48-0.758-1.104-0.758-1.871c0-0.771,0.266-1.396,0.79-1.879
				c0.528-0.484,1.17-0.729,1.929-0.729c0.76,0,1.399,0.262,1.925,0.785l-0.625,0.77c-0.436-0.379-0.874-0.566-1.316-0.566
				s-0.826,0.145-1.152,0.438c-0.322,0.293-0.485,0.672-0.485,1.137c0,0.463,0.16,0.857,0.482,1.184
				c0.321,0.318,0.719,0.479,1.188,0.479s0.915-0.215,1.331-0.643l0.625,0.68C88.995,41.359,88.288,41.666,87.485,41.666"/>
			<path d="M100.994,37.404v2.559c0,0.238,0.064,0.43,0.191,0.572c0.125,0.141,0.301,0.213,0.527,0.213
				c0.228,0,0.444-0.109,0.654-0.332l0.436,0.75c-0.373,0.332-0.783,0.5-1.234,0.5c-0.452,0-0.837-0.156-1.158-0.467
				c-0.317-0.314-0.476-0.736-0.476-1.27v-4.961h1.06v1.58h1.326v0.855H100.994L100.994,37.404z"/>
			<path d="M103.686,36.551h1.06v5.039h-1.06V36.551z M103.752,35.545c-0.133-0.131-0.2-0.289-0.2-0.473s0.066-0.344,0.2-0.477
				c0.132-0.131,0.29-0.195,0.476-0.195c0.183,0,0.339,0.064,0.473,0.195c0.133,0.135,0.2,0.293,0.2,0.477s-0.067,0.342-0.2,0.473
				c-0.134,0.135-0.291,0.199-0.473,0.199C104.042,35.744,103.884,35.68,103.752,35.545"/>
			<path d="M107.115,36.514v0.891h1.326v0.852h-1.326v3.336h-1.062v-5.051c0-0.541,0.171-0.967,0.508-1.27
				c0.339-0.311,0.771-0.461,1.299-0.461c0.523,0,0.979,0.166,1.35,0.502l-0.436,0.854c-0.234-0.248-0.526-0.371-0.872-0.371
				C107.375,35.793,107.115,36.033,107.115,36.514"/>
			<path d="M109.847,36.551h1.062v5.039h-1.062V36.551z M109.913,35.545c-0.13-0.131-0.197-0.289-0.197-0.473
				s0.066-0.344,0.197-0.477c0.133-0.131,0.292-0.195,0.476-0.195c0.183,0,0.339,0.064,0.474,0.195
				c0.133,0.135,0.198,0.293,0.198,0.477s-0.064,0.342-0.198,0.473c-0.135,0.135-0.292,0.199-0.474,0.199
				C110.205,35.744,110.046,35.68,109.913,35.545"/>
			<path d="M118.449,39.096c0,0.482,0.152,0.875,0.464,1.18c0.31,0.303,0.672,0.453,1.089,0.453c0.419,0,0.771-0.152,1.062-0.457
				c0.29-0.309,0.438-0.703,0.438-1.182c0-0.48-0.147-0.883-0.438-1.205c-0.29-0.32-0.645-0.48-1.069-0.48
				c-0.421,0-0.786,0.16-1.088,0.48C118.599,38.207,118.449,38.611,118.449,39.096 M118.098,40.949
				c-0.475-0.482-0.711-1.115-0.711-1.896c0-0.785,0.243-1.412,0.73-1.877c0.483-0.469,1.064-0.701,1.737-0.701
				c0.675,0,1.216,0.283,1.625,0.855v-2.771h1.061v7.031h-1.061v-0.758c-0.392,0.555-0.963,0.832-1.717,0.832
				C119.129,41.666,118.573,41.428,118.098,40.949"/>
			<path d="M86.67,49.5c0,0.479,0.146,0.873,0.438,1.182c0.29,0.305,0.645,0.459,1.061,0.459c0.417,0,0.78-0.15,1.091-0.455
				c0.31-0.305,0.465-0.697,0.465-1.18c0-0.484-0.151-0.885-0.455-1.203c-0.306-0.316-0.667-0.479-1.09-0.479
				s-0.78,0.158-1.07,0.479C86.816,48.621,86.67,49.021,86.67,49.5 M88.329,46.895c0.676,0,1.253,0.232,1.732,0.701
				c0.48,0.467,0.721,1.09,0.721,1.865c0,0.777-0.238,1.408-0.714,1.895c-0.478,0.486-1.035,0.73-1.667,0.73
				c-0.636,0-1.206-0.277-1.71-0.832v2.596h-1.062v-6.879h1.062v0.881C87.106,47.215,87.653,46.895,88.329,46.895"/>
			<path d="M96.651,50.68c0.298,0.309,0.68,0.461,1.142,0.461c0.46,0,0.839-0.154,1.141-0.461c0.301-0.305,0.449-0.703,0.449-1.186
				c0-0.488-0.147-0.889-0.449-1.191c-0.302-0.305-0.681-0.459-1.141-0.459c-0.462,0-0.844,0.154-1.142,0.459
				c-0.302,0.307-0.45,0.703-0.45,1.191C96.201,49.977,96.35,50.375,96.651,50.68 M99.688,51.336
				c-0.504,0.5-1.139,0.752-1.896,0.752c-0.758,0-1.39-0.252-1.896-0.752c-0.506-0.504-0.757-1.119-0.757-1.842
				c0-0.73,0.25-1.346,0.757-1.848c0.506-0.502,1.137-0.756,1.896-0.756c0.757,0,1.392,0.254,1.896,0.756
				c0.504,0.504,0.757,1.115,0.757,1.848C100.444,50.217,100.192,50.832,99.688,51.336"/>
			<path d="M102.292,49.516c0,0.484,0.156,0.875,0.463,1.182c0.312,0.301,0.675,0.455,1.092,0.455c0.415,0,0.77-0.156,1.062-0.461
				c0.292-0.309,0.438-0.701,0.438-1.182s-0.146-0.881-0.438-1.201c-0.292-0.322-0.647-0.482-1.07-0.482
				c-0.422,0-0.786,0.16-1.089,0.482C102.444,48.629,102.292,49.031,102.292,49.516 M101.942,51.369
				c-0.476-0.482-0.712-1.113-0.712-1.896c0-0.779,0.244-1.406,0.731-1.877c0.485-0.469,1.066-0.697,1.737-0.697
				c0.673,0,1.213,0.281,1.624,0.852v-2.766h1.062v7.025h-1.062v-0.756c-0.393,0.555-0.963,0.832-1.714,0.832
				C102.972,52.088,102.416,51.85,101.942,51.369"/>
			<path d="M111.116,49.699v-2.729h1.061v5.039h-1.061v-0.918c-0.169,0.309-0.406,0.553-0.706,0.73
				c-0.3,0.176-0.623,0.264-0.972,0.264c-0.566,0-1.026-0.174-1.378-0.521c-0.351-0.346-0.523-0.85-0.523-1.504v-3.09h1.059v2.768
				c0,0.928,0.386,1.393,1.155,1.393c0.368,0,0.685-0.121,0.958-0.365C110.978,50.521,111.116,50.168,111.116,49.699"/>
			<path d="M115.851,52.088c-0.699,0-1.304-0.238-1.808-0.715c-0.505-0.48-0.759-1.104-0.759-1.873c0-0.771,0.264-1.396,0.793-1.879
				c0.524-0.482,1.168-0.729,1.926-0.729c0.759,0,1.4,0.268,1.924,0.785l-0.625,0.771c-0.435-0.379-0.875-0.568-1.314-0.568
				c-0.441,0-0.826,0.145-1.152,0.439c-0.323,0.293-0.486,0.674-0.486,1.137s0.159,0.857,0.483,1.18
				c0.32,0.322,0.716,0.48,1.188,0.48c0.474,0,0.916-0.213,1.331-0.643l0.625,0.682C117.363,51.779,116.655,52.088,115.851,52.088"
				/>
			<path d="M119.992,47.824v2.559c0,0.238,0.062,0.432,0.189,0.572c0.125,0.143,0.303,0.213,0.531,0.213
				c0.227,0,0.443-0.109,0.653-0.328l0.436,0.748c-0.373,0.33-0.786,0.5-1.234,0.5c-0.452,0-0.839-0.156-1.157-0.469
				c-0.318-0.314-0.478-0.734-0.478-1.268v-4.961h1.061v1.58h1.328v0.854H119.992L119.992,47.824z"/>
			<path d="M91.302,39.135c-0.04-0.691,0.351-1.316,1.076-1.572c0.758-0.264,1.56-0.006,1.821,0.645L91.302,39.135z M94.962,37.416
				c-0.451-0.568-1.052-0.869-1.812-0.93c-0.764-0.062-1.364,0.141-1.957,0.6c-0.562,0.436-0.847,1.051-0.901,1.779
				c-0.058,0.727,0.145,1.355,0.608,1.895c0.463,0.539,1.075,0.838,1.835,0.896c1.004,0.082,1.766-0.406,2.115-0.699l-0.568-0.764
				v0.002c0,0-0.495,0.535-1.205,0.535c-0.708,0-1.193-0.25-1.527-0.742l3.843-1.191C95.386,38.801,95.493,38.088,94.962,37.416"/>
			<path d="M112.699,39.135c-0.04-0.691,0.349-1.316,1.075-1.572c0.755-0.264,1.558-0.006,1.817,0.645L112.699,39.135z
				 M116.354,37.416c-0.448-0.568-1.051-0.869-1.812-0.93c-0.759-0.062-1.365,0.141-1.955,0.6c-0.562,0.436-0.844,1.051-0.901,1.779
				c-0.06,0.727,0.145,1.355,0.606,1.895c0.463,0.539,1.075,0.838,1.836,0.896c1.006,0.082,1.765-0.406,2.116-0.699l-0.567-0.764
				l-0.002,0.002c0,0-0.495,0.535-1.206,0.535c-0.708,0-1.193-0.25-1.523-0.742l3.84-1.191
				C116.779,38.801,116.889,38.088,116.354,37.416"/>
			<path d="M97.376,37.459v-0.906h-1.061v5.037h1.061v-2.158c0-0.574,0.131-1.033,0.398-1.375c0.265-0.34,0.66-0.51,1.183-0.51h0.06
				v-1.07C99.016,36.477,98.02,36.436,97.376,37.459"/>
			<path d="M92.961,47.879v-0.906h-1.059v5.039h1.059v-2.16c0-0.574,0.134-1.031,0.398-1.373c0.266-0.342,0.66-0.512,1.186-0.512
				h0.059v-1.07C94.602,46.895,93.605,46.855,92.961,47.879"/>
		</g>
	</g>
</g>
</svg>
