<svg xmlns="http://www.w3.org/2000/svg" xmlns:xlink="http://www.w3.org/1999/xlink" width="500" height="500" viewBox="0 0 500 500"><defs><style>.cls-1{fill:none;}.cls-2{fill:#233c83;}.cls-3{fill:url(#Blue_2);}</style><pattern id="Blue_2" data-name="Blue 2" width="28.8003" height="28.7998" patternTransform="translate(-94.07571 -740.05785) scale(2.25)" patternUnits="userSpaceOnUse" viewBox="0 0 28.8 28.8"><rect class="cls-1" width="28.8003" height="28.7998"/><path class="cls-2" d="M25.20016,26.64036a1.43946,1.43946,0,1,0-1.4404-1.43945A1.43953,1.43953,0,0,0,25.20016,26.64036Z"/><path class="cls-2" d="M10.79976,26.64036a1.43946,1.43946,0,1,0-1.4394-1.43945A1.44038,1.44038,0,0,0,10.79976,26.64036Z"/><path class="cls-2" d="M25.20016,12.242a1.44045,1.44045,0,1,0-1.4404-1.4414A1.4412,1.4412,0,0,0,25.20016,12.242Z"/><path class="cls-2" d="M10.79976,12.242a1.44045,1.44045,0,1,0-1.4394-1.4414A1.44206,1.44206,0,0,0,10.79976,12.242Z"/><path class="cls-2" d="M3.59961,19.44114a1.44044,1.44044,0,1,0-1.43945-1.43945A1.44039,1.44039,0,0,0,3.59961,19.44114Z"/><path class="cls-2" d="M18,19.44114a1.44044,1.44044,0,1,0-1.4404-1.43945A1.44038,1.44038,0,0,0,18,19.44114Z"/><path class="cls-2" d="M3.59961,5.04076a1.44045,1.44045,0,1,0-1.43945-1.4395A1.44038,1.44038,0,0,0,3.59961,5.04076Z"/><path class="cls-2" d="M18,5.04076a1.44045,1.44045,0,1,0-1.4404-1.4395A1.44037,1.44037,0,0,0,18,5.04076Z"/></pattern></defs><g id="Dots"><path class="cls-3" d="M447.03545,80.16086H23.79786A10.00274,10.00274,0,0,0,13.7951,90.16362v245.5998a10.00274,10.00274,0,0,0,10.00276,10.00276h189.219v36.88967H116.80228a7.66168,7.66168,0,1,0,0,15.32335H354.5985a7.66168,7.66168,0,1,0,0-15.32335H258.13569V345.76618H447.03545a10.0028,10.0028,0,0,0,10.00276-10.00276V90.16362A10.0028,10.0028,0,0,0,447.03545,80.16086ZM31.79,106.1502a8.96338,8.96338,0,0,1,8.96335-8.96335H202.9354L31.79,271.06872Zm0,182.26137L223.01459,97.18685h19.49483L40.46913,302.23364H31.79Zm407.25325,13.82207H134.847L339.89382,97.18685h90.18605a8.96332,8.96332,0,0,1,8.96336,8.96335Z"/></g><g id="Solid"><path class="cls-2" d="M473.07776,109.14531H49.84017a10.00274,10.00274,0,0,0-10.00276,10.00276V364.74786a10.00274,10.00274,0,0,0,10.00276,10.00277h189.219V411.6403H142.84459a7.66168,7.66168,0,1,0,0,15.32335H380.64082a7.66168,7.66168,0,1,0,0-15.32335H284.178V374.75063H473.07776a10.0028,10.0028,0,0,0,10.00276-10.00277V119.14807A10.0028,10.0028,0,0,0,473.07776,109.14531ZM57.83229,135.13465a8.96339,8.96339,0,0,1,8.96335-8.96336H228.97771L57.83229,300.05317Zm0,182.26136L249.05691,126.17129h19.49483L66.51145,331.21809H57.83229Zm407.25325,13.82208H160.88933l205.0468-205.0468h90.18606a8.96332,8.96332,0,0,1,8.96335,8.96336Z"/></g></svg>