<svg xmlns="http://www.w3.org/2000/svg" xmlns:xlink="http://www.w3.org/1999/xlink" width="1000" height="267" viewBox="0 0 1000 267"><defs><style>.cls-1{fill:none;}.cls-2{fill:#006555;}.cls-3{font-size:25px;font-family:Circe-Regular, Circe;}.cls-12,.cls-3{fill:#016352;}.cls-4{letter-spacing:-0.12299em;}.cls-5{letter-spacing:-0.02398em;}.cls-6{letter-spacing:-0.006em;}.cls-7{letter-spacing:0.00002em;}.cls-8{letter-spacing:-0.12301em;}.cls-9{letter-spacing:-0.00004em;}.cls-10{fill:url(#Green);}.cls-11{fill:url(#Green-3);}</style><pattern id="Green" data-name="Green" width="28.8003" height="28.7998" patternTransform="translate(-11.82405 345.56181) scale(0.70073)" patternUnits="userSpaceOnUse" viewBox="0 0 28.8 28.8"><rect class="cls-1" width="28.8003" height="28.7998"/><path class="cls-2" d="M25.20005,26.64041a1.43946,1.43946,0,1,0-1.4404-1.43945A1.43953,1.43953,0,0,0,25.20005,26.64041Z"/><path class="cls-2" d="M10.79965,26.64041A1.43946,1.43946,0,1,0,9.36025,25.201,1.44038,1.44038,0,0,0,10.79965,26.64041Z"/><path class="cls-2" d="M25.20005,12.242a1.44045,1.44045,0,1,0-1.4404-1.4414A1.4412,1.4412,0,0,0,25.20005,12.242Z"/><path class="cls-2" d="M10.79965,12.242a1.44045,1.44045,0,1,0-1.4394-1.4414A1.44206,1.44206,0,0,0,10.79965,12.242Z"/><path class="cls-2" d="M3.5995,19.44119a1.44044,1.44044,0,1,0-1.43945-1.43945A1.44039,1.44039,0,0,0,3.5995,19.44119Z"/><path class="cls-2" d="M17.99985,19.44119a1.44044,1.44044,0,1,0-1.4404-1.43945A1.44038,1.44038,0,0,0,17.99985,19.44119Z"/><path class="cls-2" d="M3.5995,5.04081a1.44045,1.44045,0,1,0-1.43945-1.4395A1.44038,1.44038,0,0,0,3.5995,5.04081Z"/><path class="cls-2" d="M17.99985,5.04081a1.44045,1.44045,0,1,0-1.4404-1.4395A1.44037,1.44037,0,0,0,17.99985,5.04081Z"/></pattern><pattern id="Green-3" data-name="Green" width="28.8003" height="28.7998" patternTransform="translate(-27.69998 571.36719) scale(0.68086)" patternUnits="userSpaceOnUse" viewBox="0 0 28.8 28.8"><rect class="cls-1" width="28.8003" height="28.7998"/><path class="cls-2" d="M25.20005,26.64041a1.43946,1.43946,0,1,0-1.4404-1.43945A1.43953,1.43953,0,0,0,25.20005,26.64041Z"/><path class="cls-2" d="M10.79965,26.64041A1.43946,1.43946,0,1,0,9.36025,25.201,1.44038,1.44038,0,0,0,10.79965,26.64041Z"/><path class="cls-2" d="M25.20005,12.242a1.44045,1.44045,0,1,0-1.4404-1.4414A1.4412,1.4412,0,0,0,25.20005,12.242Z"/><path class="cls-2" d="M10.79965,12.242a1.44045,1.44045,0,1,0-1.4394-1.4414A1.44206,1.44206,0,0,0,10.79965,12.242Z"/><path class="cls-2" d="M3.5995,19.44119a1.44044,1.44044,0,1,0-1.43945-1.43945A1.44039,1.44039,0,0,0,3.5995,19.44119Z"/><path class="cls-2" d="M17.99985,19.44119a1.44044,1.44044,0,1,0-1.4404-1.43945A1.44038,1.44038,0,0,0,17.99985,19.44119Z"/><path class="cls-2" d="M3.5995,5.04081a1.44045,1.44045,0,1,0-1.43945-1.4395A1.44038,1.44038,0,0,0,3.5995,5.04081Z"/><path class="cls-2" d="M17.99985,5.04081a1.44045,1.44045,0,1,0-1.4404-1.4395A1.44037,1.44037,0,0,0,17.99985,5.04081Z"/></pattern></defs><g id="Text"><text class="cls-3" transform="translate(142.73507 216.46839)"><tspan class="cls-4">T</tspan><tspan x="11.7998" y="0">rack </tspan><tspan class="cls-5" x="61.89941" y="0">c</tspan><tspan x="73.49951" y="0">onsumption of </tspan><tspan x="-7.24951" y="30">an el</tspan><tspan class="cls-6" x="43.84961" y="30">e</tspan><tspan x="56.69922" y="30">ctrical applian</tspan><tspan class="cls-5" x="207.97168" y="30">c</tspan><tspan class="cls-7" x="219.57178" y="30" xml:space="preserve">e  </tspan></text><text class="cls-3" transform="translate(640.04596 216.45472)"><tspan class="cls-8">T</tspan><tspan x="11.7998" y="0">urn off applian</tspan><tspan class="cls-5" x="167.87207" y="0">c</tspan><tspan class="cls-9" x="179.47266" y="0">e </tspan><tspan x="14.3877" y="30">when not in use</tspan></text></g><g id="Icons_Dots" data-name="Icons Dots"><path class="cls-10" d="M789.24885,30.04467H649.999a3.291,3.291,0,0,0-3.291,3.291v80.80507a3.291,3.291,0,0,0,3.291,3.291h62.25515v12.13711H680.59846a2.52078,2.52078,0,1,0,0,5.04155h78.23761a2.52078,2.52078,0,1,0,0-5.04155H727.09873V117.43178h62.15012a3.291,3.291,0,0,0,3.291-3.291V33.33569A3.291,3.291,0,0,0,789.24885,30.04467ZM652.62847,38.59545a2.949,2.949,0,0,1,2.949-2.949h53.35971L652.62847,92.85548Zm0,59.966,62.915-62.91506h6.414L655.484,103.10909h-2.85554Zm133.99085,4.54762H686.53538l67.46268-67.46268h29.67222a2.949,2.949,0,0,1,2.949,2.949Z"/><rect class="cls-11" x="204.7774" y="32.30357" width="19.8695" height="94.07242" rx="3.311"/><rect class="cls-11" x="230.36158" y="44.96378" width="19.8695" height="82.64306" rx="3.10335"/><rect class="cls-11" x="255.37888" y="74.85595" width="19.8695" height="53.71799" rx="2.502"/><rect class="cls-11" x="281.17827" y="61.66823" width="19.8695" height="64.70776" rx="2.74604"/><rect class="cls-11" x="306.85037" y="95.25297" width="19.8695" height="32.35388" rx="1.94174"/><rect class="cls-11" x="198.9748" y="123.56261" width="132.40474" height="5.01133" rx="1.54956"/><path class="cls-11" d="M338.707,50.16135l.29183-14.30321a2.06837,2.06837,0,0,0-2.02574-2.11013h0a2.06836,2.06836,0,0,0-2.11012,2.02574L334.57113,50.077a2.06837,2.06837,0,0,0,2.02575,2.11012h0A2.06836,2.06836,0,0,0,338.707,50.16135Z"/><path class="cls-11" d="M352.19166,50.43647l.29182-14.30321a2.06836,2.06836,0,0,0-2.02574-2.11012h0a2.06836,2.06836,0,0,0-2.11013,2.02574l-.29182,14.30321a2.06836,2.06836,0,0,0,2.02574,2.11012h0A2.06836,2.06836,0,0,0,352.19166,50.43647Z"/><path class="cls-11" d="M316.78555,114.84643a1.89579,1.89579,0,0,0,.01.24146,13.8986,13.8986,0,0,0,27.62813.56556,1.88459,1.88459,0,0,0,.02052-.24461l.76379-37.43575a1.73261,1.73261,0,0,0-1.69691-1.7676l-.75336-.01537a1.73262,1.73262,0,0,0-1.76767,1.70111l-.60729,33.77569a1.50512,1.50512,0,0,0,.0051.15061c.54925,6.64845-4.22677,11.92582-9.05006,12.2391-5.29307.34381-11.186-5.25515-10.43515-12.65676.00369-.03642.00608-.07334.00682-.10993"/><path class="cls-11" d="M319.83654,100.40925l.03393-.02733"/><path class="cls-11" d="M333.70874,61.761l18.99729.3876a2.2201,2.2201,0,0,1,2.17435,2.26493l-.10156,4.978a2.1491,2.1491,0,0,1-.20867.89817,12.521,12.521,0,0,1-23.06625-.48126,2.14606,2.14606,0,0,1-.16194-.88126l.10185-4.99179A2.22011,2.22011,0,0,1,333.70874,61.761Z"/><path class="cls-11" d="M358.49394,52.07355l-.12658,6.20381a2.02528,2.02528,0,0,1-2.06616,1.98354l-25.59068-.52212a2.02527,2.02527,0,0,1-1.98354-2.06617l.12657-6.2038a2.02527,2.02527,0,0,1,2.06617-1.98354l25.59068.52212A2.02528,2.02528,0,0,1,358.49394,52.07355Z"/></g><g id="Icons_solid" data-name="Icons solid"><path class="cls-12" d="M808.71962,46.19532H669.46974a3.291,3.291,0,0,0-3.291,3.291v80.80507a3.291,3.291,0,0,0,3.291,3.291h62.25514v12.13711H700.06923a2.52078,2.52078,0,1,0,0,5.04155h78.23761a2.52078,2.52078,0,1,0,0-5.04155H746.56949V133.58243h62.15013a3.291,3.291,0,0,0,3.291-3.291V49.48634A3.291,3.291,0,0,0,808.71962,46.19532ZM672.09923,54.7461a2.949,2.949,0,0,1,2.949-2.949H728.408l-56.30875,57.20907Zm0,59.966,62.915-62.91506h6.414l-66.47351,67.46268h-2.85554Zm133.99086,4.54762H706.00615l67.46268-67.46268H803.141a2.949,2.949,0,0,1,2.949,2.949Z"/><rect class="cls-12" x="200.34026" y="47.99617" width="19.8695" height="94.07242" rx="3.311"/><rect class="cls-12" x="225.92444" y="60.65639" width="19.8695" height="82.64306" rx="3.10335"/><rect class="cls-12" x="250.94174" y="90.54856" width="19.8695" height="53.71799" rx="2.502"/><rect class="cls-12" x="276.74113" y="77.36084" width="19.8695" height="64.70776" rx="2.74604"/><rect class="cls-12" x="302.41323" y="110.94557" width="19.8695" height="32.35388" rx="1.94174"/><rect class="cls-12" x="194.53766" y="139.25522" width="132.40474" height="5.01133" rx="1.54956"/><rect class="cls-12" x="323.12638" y="56.59179" width="18.44292" height="4.13673" rx="2.06836" transform="translate(266.9205 389.74227) rotate(-88.83117)"/><rect class="cls-12" x="336.61104" y="56.86692" width="18.44292" height="4.13673" rx="2.06836" transform="translate(279.85502 403.49363) rotate(-88.83117)"/><path class="cls-12" d="M312.34841,130.539a1.89587,1.89587,0,0,0,.01.24147,13.8986,13.8986,0,0,0,27.62813.56555,1.88268,1.88268,0,0,0,.02052-.24461l.76379-37.43574a1.73261,1.73261,0,0,0-1.69691-1.7676l-.75336-.01537a1.73262,1.73262,0,0,0-1.76767,1.70111l-.60729,33.77569a1.50512,1.50512,0,0,0,.0051.15061c.54925,6.64845-4.22676,11.92581-9.05006,12.23909-5.29307.34382-11.186-5.25515-10.43515-12.65676.0037-.03641.00608-.07334.00682-.10993"/><path class="cls-12" d="M315.3994,116.10186l.03393-.02733"/><path class="cls-12" d="M329.2716,77.45362l18.99729.38759a2.22012,2.22012,0,0,1,2.17436,2.26494l-.10157,4.978a2.14906,2.14906,0,0,1-.20867.89816,12.521,12.521,0,0,1-23.06624-.48125,2.14593,2.14593,0,0,1-.162-.88126l.10185-4.99179A2.22011,2.22011,0,0,1,329.2716,77.45362Z"/><rect class="cls-12" x="334.0455" y="55.74241" width="10.25564" height="29.64656" rx="2.02527" transform="matrix(0.0204, -0.99979, 0.99979, 0.0204, 261.70369, 408.229)"/><path class="cls-12" d="M533.02217,115.31049l-21.85355-21.854a3.32154,3.32154,0,0,0-4.6841,0l-1.98413,1.98463a3.28732,3.28732,0,0,0-.96674,2.34181,3.35221,3.35221,0,0,0,.96674,2.36935l12.74905,12.77709H476.74511a3.232,3.232,0,0,0-3.26918,3.25639v2.80573a3.35613,3.35613,0,0,0,3.26918,3.40054h40.649l-12.8932,12.84843a3.28,3.28,0,0,0,0,4.65064l1.98414,1.97823a3.32216,3.32216,0,0,0,4.6841-.00442l21.85354-21.85355a3.34005,3.34005,0,0,0-.00049-4.70083Z"/></g></svg>