<svg xmlns="http://www.w3.org/2000/svg" xmlns:xlink="http://www.w3.org/1999/xlink" width="500" height="500" viewBox="0 0 500 500"><defs><style>.cls-1,.cls-6{fill:none;}.cls-2{fill:#233c83;}.cls-3,.cls-4,.cls-5{fill:url(#Blue_2);}.cls-4{font-size:44.28961px;font-family:Circe-ExtraBold, Circe;font-weight:800;}.cls-5{stroke:#fff;stroke-width:3px;}.cls-5,.cls-6{stroke-miterlimit:10;}.cls-6{stroke:#a3c2e6;stroke-width:2px;}</style><pattern id="Blue_2" data-name="Blue 2" width="28.8003" height="28.7998" patternTransform="translate(-26.57571 -73.6119) scale(2.25)" patternUnits="userSpaceOnUse" viewBox="0 0 28.8 28.8"><rect class="cls-1" width="28.8003" height="28.7998"/><path class="cls-2" d="M25.20016,26.64036a1.43946,1.43946,0,1,0-1.4404-1.43945A1.43953,1.43953,0,0,0,25.20016,26.64036Z"/><path class="cls-2" d="M10.79976,26.64036a1.43946,1.43946,0,1,0-1.4394-1.43945A1.44038,1.44038,0,0,0,10.79976,26.64036Z"/><path class="cls-2" d="M25.20016,12.242a1.44045,1.44045,0,1,0-1.4404-1.4414A1.4412,1.4412,0,0,0,25.20016,12.242Z"/><path class="cls-2" d="M10.79976,12.242a1.44045,1.44045,0,1,0-1.4394-1.4414A1.44206,1.44206,0,0,0,10.79976,12.242Z"/><path class="cls-2" d="M3.59961,19.44114a1.44044,1.44044,0,1,0-1.43945-1.43945A1.44039,1.44039,0,0,0,3.59961,19.44114Z"/><path class="cls-2" d="M18,19.44114a1.44044,1.44044,0,1,0-1.4404-1.43945A1.44038,1.44038,0,0,0,18,19.44114Z"/><path class="cls-2" d="M3.59961,5.04076a1.44045,1.44045,0,1,0-1.43945-1.4395A1.44038,1.44038,0,0,0,3.59961,5.04076Z"/><path class="cls-2" d="M18,5.04076a1.44045,1.44045,0,1,0-1.4404-1.4395A1.44037,1.44037,0,0,0,18,5.04076Z"/></pattern></defs><g id="Dots"><path class="cls-3" d="M153.02337,353.82762c-1.90143-3.32506-.48664-6.64084-2.50094-13.9895a39.78748,39.78748,0,0,0-3.83976-9.22578,6.94623,6.94623,0,0,1,.03647-.841,6.81537,6.81537,0,0,1,.13848-.83019,36.661,36.661,0,0,1,4.7692-20.666,6.88333,6.88333,0,0,1,2.10329-3.57L185.807,275.83582a6.88628,6.88628,0,0,0,2.23744-5.87869l-1.85151-16.66486a6.88617,6.88617,0,0,0-11.175-4.59306l-71.02576,57.45914a9.46284,9.46284,0,0,1-13.63125-9.16289,6.74428,6.74428,0,0,1,2.7892-4.92966l51.27738-37.86644a14.7091,14.7091,0,0,0,5.96953-11.63562l.6121-45.91186a6.88613,6.88613,0,0,0-11.27443-5.39786L66.27088,252.02009a36.19725,36.19725,0,0,0-13.12637,27.89246V434.56234a6.886,6.886,0,0,0,6.886,6.88595H176.101a6.886,6.886,0,0,0,6.886-6.88595V420.35708a4.72527,4.72527,0,0,1,.7202-3.06622c1.25112-1.82421,4.01471-2.54946,6.77873-1.60341a23.42581,23.42581,0,0,0,17.62208-5.41332,22.84391,22.84391,0,0,0,7.26363-13.01448q.2468-2.11461.52962-4.27512.32559-2.48505.68113-4.89987V366.61549a6.886,6.886,0,0,0-6.886-6.886H171.23976C159.00028,359.85462,154.6856,356.73414,153.02337,353.82762Z"/><path class="cls-3" d="M165.443,303.43438v24.06154a21.33763,21.33763,0,0,0,21.33768,21.33768h192.785a21.33762,21.33762,0,0,0,21.33768-21.33768V63.27194a21.33762,21.33762,0,0,0-21.33768-21.33768H186.78068A21.33763,21.33763,0,0,0,165.443,63.27194V244.64225m129.19386,84.89662h-22.927a5.67488,5.67488,0,0,1,0-11.34975h22.927a5.67488,5.67488,0,0,1,0,11.34975ZM165.443,244.64225l17.24136-13.3928V74.09207A10.66854,10.66854,0,0,1,193.3532,63.42323H373.58828a10.66881,10.66881,0,0,1,10.66884,10.66884V294.884a10.66881,10.66881,0,0,1-10.66884,10.66884H193.3532A10.66854,10.66854,0,0,1,182.68436,294.884V288.2256L165.443,303.43438"/><rect class="cls-3" x="195.09826" y="74.31912" width="176.14949" height="218.52203"/><text class="cls-4" transform="translate(247.4318 169.67975)">ON<tspan x="-6.2002" y="60.14746">OFF</tspan></text><rect class="cls-5" x="233.27632" y="126.56895" width="98.04255" height="53.61702" rx="11.74468"/><rect class="cls-5" x="233.27632" y="185.10086" width="98.04255" height="53.61702" rx="11.32979"/></g><g id="Solid"><path class="cls-2" d="M213.05732,383.584c-1.90142-3.32506-.48664-6.64084-2.50094-13.98951a39.78748,39.78748,0,0,0-3.83976-9.22578,6.94607,6.94607,0,0,1,.03647-.841,6.81553,6.81553,0,0,1,.13848-.8302,36.661,36.661,0,0,1,4.7692-20.666,6.88354,6.88354,0,0,1,2.1033-3.57l32.07684-28.86933a6.88625,6.88625,0,0,0,2.23744-5.87869l-1.85151-16.66486a6.88616,6.88616,0,0,0-11.175-4.59305l-71.02575,57.45913a9.46283,9.46283,0,0,1-13.63125-9.16289,6.74427,6.74427,0,0,1,2.78919-4.92966l51.27738-37.86644a14.709,14.709,0,0,0,5.96953-11.63562l.6121-45.91186a6.88613,6.88613,0,0,0-11.27443-5.39786L126.30484,281.7765A36.19723,36.19723,0,0,0,113.17846,309.669V464.31874a6.886,6.886,0,0,0,6.886,6.886H236.13494a6.886,6.886,0,0,0,6.886-6.886V450.11348a4.72531,4.72531,0,0,1,.72019-3.06622c1.25113-1.82421,4.01471-2.54945,6.77873-1.60341a23.4258,23.4258,0,0,0,17.62208-5.41332,22.84391,22.84391,0,0,0,7.26363-13.01448q.2468-2.11461.52962-4.27512.32559-2.48505.68113-4.89987V396.3719a6.886,6.886,0,0,0-6.886-6.886H231.27371C219.03424,389.611,214.71956,386.49054,213.05732,383.584Z"/><path class="cls-2" d="M225.477,333.19078v24.06155A21.33763,21.33763,0,0,0,246.81464,378.59H439.59958a21.33763,21.33763,0,0,0,21.33768-21.33768V93.02834a21.33762,21.33762,0,0,0-21.33768-21.33768H246.81464A21.33762,21.33762,0,0,0,225.477,93.02834V274.39865m129.19386,84.89663h-22.927a5.67488,5.67488,0,0,1,0-11.34976h22.927a5.67488,5.67488,0,0,1,0,11.34976ZM225.477,274.39865l17.24136-13.3928V103.84847a10.66853,10.66853,0,0,1,10.66884-10.66884H433.62224a10.66882,10.66882,0,0,1,10.66884,10.66884v220.792a10.66882,10.66882,0,0,1-10.66884,10.66884H253.38716a10.66853,10.66853,0,0,1-10.66884-10.66884V317.982L225.477,333.19078"/><ellipse class="cls-2" cx="319.51545" cy="244.0799" rx="8.94824" ry="9.39063"/><ellipse class="cls-2" cx="325.71565" cy="183.93244" rx="8.94824" ry="9.39063"/><path class="cls-2" d="M255.13221,104.0755v218.522H431.28169V104.0755Zm92.81391,64.353H353.616l14.707,18.69336V168.42853h6.64453v31.00781h-5.66992l-14.707-18.60449v18.60449h-6.64453Zm-28.43067,91.68652c-9.43457,0-16.47851-6.15722-16.47851-16.03515,0-8.99219,6.60058-16.03516,16.47851-16.03516,9.43555,0,16.47852,6.15723,16.47852,16.03516C335.994,253.47052,328.951,260.11505,319.51545,260.11505Zm6.2002-60.14746c-9.43457,0-16.47854-6.15722-16.47854-16.03515,0-8.99219,6.60061-16.03516,16.47854-16.03516,9.43554,0,16.47851,6.15723,16.47851,16.03516C342.19416,193.32306,335.15119,199.96759,325.71565,199.96759Zm33.9707,35.25293H348.83381v6.55664h9.52344v6.64356h-9.52344V259.5838h-7.08789V228.576h17.94043Zm23.69434,0H372.52815v6.55664h9.52343v6.64356h-9.52343V259.5838h-7.08789V228.576h17.94043Z"/><rect class="cls-6" x="293.31027" y="156.32535" width="98.04255" height="53.61702" rx="11.74468"/><rect class="cls-6" x="293.31027" y="214.85726" width="98.04255" height="53.61702" rx="11.32979"/></g></svg>