<svg xmlns="http://www.w3.org/2000/svg" xmlns:xlink="http://www.w3.org/1999/xlink" width="500" height="500" viewBox="0 0 500 500"><defs><style>.cls-1{fill:none;}.cls-2{fill:#233c83;}.cls-3{fill:url(#Blue_2);}</style><pattern id="Blue_2" data-name="Blue 2" width="28.8003" height="28.7998" patternTransform="translate(-60.32571 -73.6119) scale(2.25)" patternUnits="userSpaceOnUse" viewBox="0 0 28.8 28.8"><rect class="cls-1" width="28.8003" height="28.7998"/><path class="cls-2" d="M25.20016,26.64036a1.43946,1.43946,0,1,0-1.4404-1.43945A1.43953,1.43953,0,0,0,25.20016,26.64036Z"/><path class="cls-2" d="M10.79976,26.64036a1.43946,1.43946,0,1,0-1.4394-1.43945A1.44038,1.44038,0,0,0,10.79976,26.64036Z"/><path class="cls-2" d="M25.20016,12.242a1.44045,1.44045,0,1,0-1.4404-1.4414A1.4412,1.4412,0,0,0,25.20016,12.242Z"/><path class="cls-2" d="M10.79976,12.242a1.44045,1.44045,0,1,0-1.4394-1.4414A1.44206,1.44206,0,0,0,10.79976,12.242Z"/><path class="cls-2" d="M3.59961,19.44114a1.44044,1.44044,0,1,0-1.43945-1.43945A1.44039,1.44039,0,0,0,3.59961,19.44114Z"/><path class="cls-2" d="M18,19.44114a1.44044,1.44044,0,1,0-1.4404-1.43945A1.44038,1.44038,0,0,0,18,19.44114Z"/><path class="cls-2" d="M3.59961,5.04076a1.44045,1.44045,0,1,0-1.43945-1.4395A1.44038,1.44038,0,0,0,3.59961,5.04076Z"/><path class="cls-2" d="M18,5.04076a1.44045,1.44045,0,1,0-1.4404-1.4395A1.44037,1.44037,0,0,0,18,5.04076Z"/></pattern></defs><g id="Dots"><rect class="cls-3" x="81.90664" y="115.38634" width="55.88213" height="264.57469" rx="9.31205"/><rect class="cls-3" x="153.86107" y="150.99265" width="55.88213" height="232.4301" rx="8.72805"/><rect class="cls-3" x="224.22116" y="235.06311" width="55.88213" height="151.07957" rx="7.03678"/><rect class="cls-3" x="296.78085" y="197.9732" width="55.88213" height="181.98782" rx="7.72311"/><rect class="cls-3" x="368.98254" y="292.42884" width="55.88213" height="90.99391" rx="5.46106"/><rect class="cls-3" x="65.58708" y="372.04851" width="372.38269" height="14.09417" rx="4.35806"/><path class="cls-3" d="M270.76578,162.204,128.94126,34.6251a4.35806,4.35806,0,0,1-.32545-6.15463l3.59673-3.99835a4.35806,4.35806,0,0,1,6.15464-.32545L280.1917,151.72553Z"/><polygon class="cls-3" points="331.101 96.143 271.094 162.851 260.615 153.425 320.623 86.717 331.101 96.143"/><polygon class="cls-3" points="396.721 174.129 311.245 97.239 320.671 86.76 406.147 163.651 396.721 174.129"/><rect class="cls-3" x="371.08431" y="169.12679" width="43.0243" height="14.09417" rx="4.35806"/><path class="cls-3" d="M414.1086,144.55473v34.30816a4.35807,4.35807,0,0,1-4.35806,4.35807h-5.378a4.35808,4.35808,0,0,1-4.35807-4.35807V144.55473a4.35807,4.35807,0,0,1,4.35807-4.35807h5.378A4.35806,4.35806,0,0,1,414.1086,144.55473Z"/></g><g id="Solid"><rect class="cls-2" x="89.41735" y="183.50621" width="55.88213" height="264.57469" rx="9.31205"/><rect class="cls-2" x="161.37177" y="219.11252" width="55.88213" height="232.4301" rx="8.72805"/><rect class="cls-2" x="231.73187" y="303.18299" width="55.88213" height="151.07957" rx="7.03678"/><rect class="cls-2" x="304.29156" y="266.09308" width="55.88213" height="181.98782" rx="7.72311"/><rect class="cls-2" x="376.49325" y="360.54871" width="55.88213" height="90.99391" rx="5.46106"/><rect class="cls-2" x="73.09779" y="440.16838" width="372.38269" height="14.09417" rx="4.35806"/><path class="cls-2" d="M117.25465,152.79081h190.7631a0,0,0,0,1,0,0V166.885a0,0,0,0,1,0,0H117.25465a4.35806,4.35806,0,0,1-4.35806-4.35806v-5.378a4.35806,4.35806,0,0,1,4.35806-4.35806Z" transform="translate(160.88757 -99.7449) rotate(41.9731)"/><rect class="cls-2" x="258.50551" y="185.8565" width="89.72661" height="14.09417" transform="matrix(0.66878, -0.74346, 0.74346, 0.66878, -42.93456, 289.43544)"/><rect class="cls-2" x="308.7215" y="191.51756" width="114.97088" height="14.09417" transform="translate(226.74353 -193.97249) rotate(41.9731)"/><rect class="cls-2" x="378.59501" y="237.24667" width="43.0243" height="14.09417" rx="4.35806"/><rect class="cls-2" x="393.06008" y="222.7816" width="43.0243" height="14.09417" rx="4.35806" transform="translate(184.74354 644.40091) rotate(-90)"/></g></svg>