<?xml version="1.0" encoding="utf-8"?>
<!-- Generator: Adobe Illustrator 15.1.0, SVG Export Plug-In . SVG Version: 6.00 Build 0)  -->
<!DOCTYPE svg PUBLIC "-//W3C//DTD SVG 1.1 Basic//EN" "http://www.w3.org/Graphics/SVG/1.1/DTD/svg11-basic.dtd">
<svg version="1.1" baseProfile="basic" id="Ebene_1"
	 xmlns="http://www.w3.org/2000/svg" xmlns:xlink="http://www.w3.org/1999/xlink" x="0px" y="0px" width="128.999px" height="129px"
	 viewBox="0 0 128.999 129" xml:space="preserve">
<g>
	<circle fill="#333333" cx="64.499" cy="64.5" r="64.5"/>
	<g>
		<polygon fill="#FFFFFF" points="76.118,47.842 74.674,47.842 74.674,37.678 54.329,37.678 54.329,47.842 52.885,47.842 
			52.885,36.234 76.118,36.234 		"/>
		<rect x="70.881" y="40.746" fill="#FFFFFF" width="1.443" height="7.096"/>
		<rect x="56.677" y="40.746" fill="#FFFFFF" width="1.442" height="7.096"/>
		<rect x="66.145" y="40.746" fill="#FFFFFF" width="1.441" height="7.096"/>
		<rect x="61.413" y="40.746" fill="#FFFFFF" width="1.438" height="7.096"/>
		<path fill="#FFFFFF" d="M70.668,94.768H58.333V80.992l-8.052-12.074v-19.41h11.859v8.764h4.713v-8.764h11.863v19.41l-8.053,12.074
			L70.668,94.768L70.668,94.768z M59.772,93.324h9.449V80.553l8.061-12.076V50.947h-8.98v8.768h-7.599v-8.768h-8.979v17.529
			l8.053,12.076L59.772,93.324L59.772,93.324z"/>
	</g>
</g>
</svg>
