<?xml version="1.0" encoding="utf-8"?>
<!-- Generator: Adobe Illustrator 15.1.0, SVG Export Plug-In . SVG Version: 6.00 Build 0)  -->
<!DOCTYPE svg PUBLIC "-//W3C//DTD SVG 1.1 Basic//EN" "http://www.w3.org/Graphics/SVG/1.1/DTD/svg11-basic.dtd">
<svg version="1.1" baseProfile="basic" id="Ebene_1"
	 xmlns="http://www.w3.org/2000/svg" xmlns:xlink="http://www.w3.org/1999/xlink" x="0px" y="0px" width="128.999px" height="129px"
	 viewBox="0 0 128.999 129" xml:space="preserve">
<g>
	<circle fill="#333333" cx="64.499" cy="64.5" r="64.5"/>
	<g>
		<path fill="#FFFFFF" d="M83.606,89.799L83.606,89.799c-0.564,0-0.908-0.229-1.104-0.414L54.79,61.669
			c-1.293,0.48-2.646,0.727-4.037,0.727c-3.09,0-5.984-1.201-8.172-3.385c-3.123-3.121-4.184-7.672-2.766-11.875l0.329-0.975
			l7.443,7.448c0.063,0.064,0.219,0.076,0.303,0.076c0.701,0,2.125-0.667,3.585-2.125c1.959-1.957,2.319-3.611,2.05-3.889
			l-7.448-7.443l0.979-0.33c1.195-0.404,2.45-0.609,3.724-0.609c3.083,0,5.979,1.199,8.151,3.379
			c3.219,3.215,4.234,7.965,2.654,12.208l27.717,27.711c1.066,1.072-0.078,3.344-1.771,5.035
			C86.19,88.963,84.684,89.799,83.606,89.799z M55.102,60.169l0.303,0.301l28.006,28.01c0.016,0.016,0.072,0.043,0.195,0.043
			c0.588,0,1.779-0.561,3.021-1.807c1.643-1.641,1.957-3.041,1.771-3.23L60.086,55.175l0.163-0.396
			c1.604-3.854,0.729-8.26-2.227-11.213c-2.479-2.482-6.14-3.514-9.542-2.746l5.943,5.947c1.195,1.199-0.125,3.77-2.048,5.695
			c-1.543,1.542-3.264,2.499-4.486,2.499c-0.619,0-0.995-0.246-1.202-0.449l-5.948-5.954c-0.788,3.441,0.219,7.02,2.746,9.545
			c1.938,1.941,4.521,3.01,7.268,3.01c1.363,0,2.693-0.264,3.949-0.779L55.102,60.169z M83.168,85.961
			c-0.723,0-1.4-0.283-1.916-0.795c-0.51-0.514-0.793-1.193-0.793-1.916c0-0.727,0.283-1.404,0.795-1.918
			c1.023-1.021,2.812-1.021,3.83,0c0.512,0.512,0.795,1.191,0.795,1.916c0,0.723-0.277,1.402-0.795,1.918
			C84.573,85.678,83.893,85.961,83.168,85.961z M83.168,81.816c-0.383,0-0.742,0.15-1.012,0.422c-0.271,0.271-0.42,0.629-0.42,1.012
			s0.146,0.742,0.42,1.012c0.541,0.545,1.484,0.541,2.02,0c0.271-0.27,0.426-0.629,0.426-1.014c0-0.381-0.15-0.738-0.418-1.01
			C83.909,81.967,83.547,81.816,83.168,81.816z"/>
		<path fill="#FFFFFF" d="M47.074,89.727L47.074,89.727c-1.362,0-3.28-1.07-5.001-2.795c-1.083-1.084-1.939-2.281-2.405-3.377
			c-0.547-1.277-0.513-2.316,0.101-2.928l15.091-15.092c0.146-0.145,0.335-0.258,0.55-0.324l0.372-0.121l8.139,8.143l-0.121,0.369
			c-0.064,0.213-0.177,0.395-0.322,0.547L48.383,89.242C48.154,89.463,47.748,89.727,47.074,89.727z M55.547,66.674L40.666,81.531
			c-0.166,0.168-0.178,0.701,0.172,1.521c0.405,0.947,1.163,2.004,2.141,2.977c1.658,1.664,3.289,2.422,4.097,2.422
			c0.133,0,0.307-0.02,0.396-0.111L62.34,73.469L55.547,66.674z"/>
		<path fill="#FFFFFF" d="M70.659,61.507l-3.156-3.16l11.115-11.12l2.799-4.949l5.443-3.076l2.939,2.943l-3.072,5.441l-4.947,2.799
			L70.659,61.507z M69.309,58.347l1.352,1.354l10.414-10.383l4.713-2.668l2.428-4.287l-1.566-1.566l-4.287,2.426l-2.771,4.854
			L69.309,58.347z"/>
	</g>
</g>
</svg>
