<?xml version="1.0" encoding="utf-8"?>
<!-- Generator: Adobe Illustrator 15.1.0, SVG Export Plug-In . SVG Version: 6.00 Build 0)  -->
<!DOCTYPE svg PUBLIC "-//W3C//DTD SVG 1.1 Basic//EN" "http://www.w3.org/Graphics/SVG/1.1/DTD/svg11-basic.dtd">
<svg version="1.1" baseProfile="basic" id="Ebene_1"
	 xmlns="http://www.w3.org/2000/svg" xmlns:xlink="http://www.w3.org/1999/xlink" x="0px" y="0px" width="128.999px" height="129px"
	 viewBox="0 0 128.999 129" xml:space="preserve">
<g>
	<circle fill="#333333" cx="64.499" cy="64.5" r="64.499"/>
	<g>
		<g>
			<g>
				<path fill="#FFFFFF" d="M48.07,70.092"/>
				<path fill="#FFFFFF" d="M68.417,89.174H49.052V69.82c0-0.363-0.293-0.656-0.654-0.656c-0.36,0-0.653,0.293-0.653,0.656v15.473
					c0,1.811-1.477,3.289-3.288,3.289c-1.811,0-3.291-1.48-3.291-3.289V63.254c0-4.291,3.49-7.779,7.781-7.779h19.578
					c4.289,0,7.78,3.488,7.78,7.779v22.039c0,1.811-1.479,3.289-3.29,3.289c-1.813,0-3.29-1.48-3.29-3.289V69.82
					c0-0.363-0.293-0.656-0.652-0.656c-0.363,0-0.657,0.293-0.657,0.656L68.417,89.174L68.417,89.174z M50.272,87.953h16.927V69.818
					c0-1.033,0.84-1.875,1.875-1.875c1.03,0,1.872,0.842,1.872,1.875v15.473c0,1.143,0.928,2.07,2.07,2.07
					c1.144,0,2.067-0.93,2.067-2.07V63.252c0-3.617-2.939-6.561-6.562-6.561H48.944c-3.619,0-6.562,2.939-6.562,6.561v22.039
					c0,1.143,0.931,2.07,2.069,2.07c1.144,0,2.068-0.93,2.068-2.07V69.818c0-1.033,0.842-1.875,1.874-1.875
					c1.033,0,1.874,0.842,1.874,1.875v18.135H50.272z M58.736,54.511c-4.601,0-8.344-3.742-8.344-8.344
					c0-4.605,3.743-8.344,8.344-8.344c4.599,0,8.343,3.738,8.343,8.344C67.08,50.767,63.335,54.511,58.736,54.511z M58.736,39.044
					c-3.929,0-7.125,3.195-7.125,7.125c0,3.928,3.195,7.123,7.125,7.123c3.928,0,7.124-3.195,7.124-7.123
					C65.86,42.239,62.664,39.044,58.736,39.044z"/>
			</g>
		</g>
		<rect x="75.941" y="38.849" fill="#FFFFFF" width="17.896" height="3.355"/>
		<rect x="75.941" y="44.444" fill="#FFFFFF" width="17.896" height="3.355"/>
		<rect x="75.941" y="50.038" fill="#FFFFFF" width="17.896" height="3.355"/>
	</g>
</g>
</svg>
